<svg version="1.1" id="Layer_1" xmlns="http://www.w3.org/2000/svg" x="0" y="0" width="257" height="101.7" xml:space="preserve"><style>.st1{fill:#ed1c24}.st2{fill:#b51218}.st4{fill:#fff}.st5{fill:#710000}</style><path class="st1" d="M37.7 1.3l37 37h-37z"/><path class="st2" d="M37.7 75.3l-37-37h37zM74.7 75.3l-37-37h37z"/><path fill="#790000" d="M37.7 38.3l37 37h-37z"/><path class="st4" d="M95.3 49.6c-.2 1.7-.8 3-1.8 3.9-1 .9-2.4 1.3-4.1 1.3-1.2 0-2.2-.3-3.2-.9-.9-.6-1.6-1.4-2.1-2.5s-.8-2.3-.8-3.7v-2.1c0-1.4.2-2.7.7-3.8.5-1.1 1.2-2 2.2-2.6.9-.6 2-.9 3.2-.9 1.7 0 3.1.5 4.1 1.4 1 .9 1.6 2.2 1.7 3.8H94c-.3-2.7-1.8-4.1-4.4-4.1-1.5 0-2.6.5-3.5 1.6-.9 1.1-1.3 2.6-1.3 4.5v2c0 1.9.4 3.3 1.3 4.4.8 1.1 2 1.7 3.4 1.7s2.5-.3 3.2-1c.7-.7 1.2-1.7 1.3-3.1h1.3zM105.8 54.6c-.1-.4-.2-.9-.3-1.7-.5.6-1.1 1.1-1.8 1.4-.7.3-1.5.5-2.3.5-1.1 0-2.1-.3-2.8-1-.7-.6-1.1-1.4-1.1-2.4 0-1.2.5-2.1 1.4-2.8 1-.7 2.3-1 4-1h2.4v-1.4c0-.9-.3-1.5-.8-2s-1.3-.7-2.3-.7c-.9 0-1.7.2-2.3.7-.6.5-.9 1-.9 1.7l-1 .1c0-.9.4-1.8 1.3-2.5s2-1 3.3-1c1.3 0 2.4.3 3.1 1 .8.7 1.2 1.6 1.2 2.8v5.6c0 1.2.1 2 .4 2.6v.1h-1.5zm-4.1-.9c.9 0 1.7-.2 2.4-.6.7-.4 1.2-1 1.5-1.7v-2.6h-2.4c-1.3 0-2.3.3-3.1.7-.7.5-1.1 1.1-1.1 1.9 0 .7.2 1.2.7 1.7.6.3 1.2.6 2 .6zM111.7 42.7v2c.4-.7 1-1.3 1.7-1.7.7-.4 1.4-.6 2.2-.6 1.3 0 2.2.4 2.9 1.1.6.7.9 1.8.9 3.2v7.8h-1.3v-7.8c0-1.1-.2-1.9-.7-2.4-.4-.5-1.2-.8-2.1-.8-.8 0-1.5.3-2.2.8-.6.5-1.1 1.2-1.4 2.1v8.2h-1.3V42.7h1.3zM130.3 54.6c-.1-.4-.2-.9-.3-1.7-.5.6-1.1 1.1-1.8 1.4-.7.3-1.5.5-2.3.5-1.1 0-2.1-.3-2.8-1-.7-.6-1.1-1.4-1.1-2.4 0-1.2.5-2.1 1.4-2.8 1-.7 2.3-1 4-1h2.4v-1.4c0-.9-.3-1.5-.8-2s-1.3-.7-2.3-.7c-.9 0-1.7.2-2.3.7-.6.5-.9 1-.9 1.7h-1.3c0-.9.4-1.8 1.3-2.5s2-1 3.3-1c1.3 0 2.4.3 3.1 1 .8.7 1.2 1.6 1.2 2.8v5.6c0 1.2.1 2 .4 2.6v.1h-1.2zm-4.1-.9c.9 0 1.7-.2 2.4-.6.7-.4 1.2-1 1.5-1.7v-2.6h-2.4c-1.3 0-2.3.3-3.1.7-.7.5-1.1 1.1-1.1 1.9 0 .7.2 1.2.7 1.7.5.3 1.2.6 2 .6zM134.4 48.5c0-1.9.4-3.3 1.2-4.4.8-1.1 1.9-1.6 3.4-1.6 1.6 0 2.8.6 3.7 1.9v-6.7h1.3v16.9h-1.2l-.1-1.6c-.8 1.2-2.1 1.8-3.7 1.8-1.4 0-2.5-.6-3.3-1.7-.8-1.1-1.3-2.6-1.3-4.5v-.1zm1.3.3c0 1.5.3 2.7.9 3.6.6.9 1.5 1.3 2.6 1.3 1.6 0 2.8-.7 3.5-2.1V46c-.7-1.5-1.8-2.3-3.4-2.3-1.1 0-2 .4-2.6 1.3-.7.8-1 2.1-1 3.8zM147.4 39.2c0-.2.1-.5.2-.6.2-.2.4-.3.7-.3.3 0 .5.1.7.3.2.2.2.4.2.6 0 .2-.1.5-.2.6-.2.2-.4.3-.7.3-.3 0-.5-.1-.7-.3-.2-.1-.2-.3-.2-.6zm1.5 15.4h-1.3V42.7h1.3v11.9zM160 54.6c-.1-.4-.2-.9-.3-1.7-.5.6-1.1 1.1-1.8 1.4-.7.3-1.5.5-2.3.5-1.1 0-2.1-.3-2.8-1-.7-.6-1.1-1.4-1.1-2.4 0-1.2.5-2.1 1.4-2.8 1-.7 2.3-1 4-1h2.4v-1.4c0-.9-.3-1.5-.8-2s-1.3-.7-2.3-.7c-.9 0-1.7.2-2.3.7-.6.5-.9 1-.9 1.7h-1.3c0-.9.4-1.8 1.3-2.5s2-1 3.3-1c1.3 0 2.4.3 3.1 1 .8.7 1.2 1.6 1.2 2.8v5.6c0 1.2.1 2 .4 2.6v.1H160zm-4.1-.9c.9 0 1.7-.2 2.4-.6.7-.4 1.2-1 1.5-1.7v-2.6h-2.4c-1.3 0-2.3.3-3.1.7-.7.5-1.1 1.1-1.1 1.9 0 .7.2 1.2.7 1.7.5.3 1.2.6 2 .6zM165.8 42.7v2c.4-.7 1-1.3 1.7-1.7.7-.4 1.4-.6 2.2-.6 1.3 0 2.2.4 2.9 1.1.6.7.9 1.8.9 3.2v7.8h-1.3v-7.8c0-1.1-.2-1.9-.7-2.4-.4-.5-1.2-.8-2.1-.8-.8 0-1.5.3-2.2.8-.6.5-1.1 1.2-1.4 2.1v8.2h-1.3V42.7h1.3zM91.4 71c0-.6-.2-1-.6-1.3-.4-.3-1.1-.6-2.1-1-1-.3-1.8-.7-2.5-1-2.1-1-3.1-2.4-3.1-4.2 0-.9.3-1.7.8-2.4s1.3-1.2 2.2-1.6c.9-.4 2-.6 3.2-.6 1.2 0 2.2.2 3.1.6.9.4 1.6 1 2.1 1.8s.8 1.6.8 2.6h-3.9c0-.7-.2-1.2-.6-1.5-.4-.4-.9-.5-1.6-.5-.7 0-1.2.2-1.6.5-.4.3-.6.7-.6 1.2 0 .4.2.8.7 1.1.4.3 1.2.7 2.3 1 1.1.4 2 .7 2.7 1.2 1.7 1 2.6 2.4 2.6 4.1 0 1.4-.5 2.5-1.6 3.3-1.1.8-2.5 1.2-4.4 1.2-1.3 0-2.5-.2-3.5-.7-1.1-.5-1.8-1.1-2.4-1.9-.5-.8-.8-1.7-.8-2.8h3.9c0 .9.2 1.5.7 1.9.4.4 1.2.6 2.2.6.6 0 1.1-.1 1.5-.4.3-.3.5-.7.5-1.2zM102.2 72.6c.5 0 .9-.1 1.2-.4.3-.3.4-.7.4-1.2h3.5c0 1.3-.5 2.4-1.4 3.2-.9.8-2.1 1.3-3.6 1.3-1.7 0-3.1-.5-4.1-1.6-1-1.1-1.5-2.6-1.5-4.5v-.2c0-1.2.2-2.3.7-3.2.4-.9 1.1-1.6 1.9-2.1.8-.5 1.8-.7 3-.7 1.5 0 2.8.4 3.7 1.3.9.9 1.4 2 1.4 3.5h-3.5c0-.6-.2-1.1-.5-1.4-.3-.3-.7-.5-1.2-.5-1 0-1.5.6-1.7 1.8-.1.4-.1.9-.1 1.6 0 1.2.1 2 .4 2.5.3.4.7.6 1.4.6zM108.8 60.3c0-.5.2-1 .6-1.3.4-.3.9-.5 1.5-.5s1.1.2 1.5.5c.4.3.6.8.6 1.3s-.2 1-.6 1.3c-.4.3-.9.5-1.5.5s-1.1-.2-1.5-.5c-.4-.3-.6-.8-.6-1.3zm4 15H109V63.4h3.7v11.9zM120.8 75.5c-1.8 0-3.3-.5-4.4-1.6-1.1-1.1-1.7-2.5-1.7-4.3v-.3c0-1.2.2-2.3.7-3.2.5-.9 1.1-1.7 2-2.2.9-.5 1.9-.8 3.1-.8 1.7 0 3 .5 4 1.6 1 1 1.5 2.5 1.5 4.3v1.4h-7.4c.1.7.4 1.2.9 1.6.4.4 1 .6 1.7.6 1.2 0 2.1-.4 2.8-1.2l1.7 2c-.5.6-1.1 1.1-2 1.5-1 .4-1.9.6-2.9.6zm-.4-9.5c-1.1 0-1.7.7-1.9 2.2h3.7v-.3c0-.6-.1-1.1-.5-1.4-.3-.3-.7-.5-1.3-.5zM130.7 63.4l.1 1.4c.8-1.1 2-1.6 3.4-1.6 1.2 0 2.2.4 2.8 1.1.6.7.9 1.9 1 3.3v7.7h-3.7v-7.5c0-.6-.1-1-.4-1.3-.2-.3-.7-.4-1.3-.4-.7 0-1.3.3-1.6.9v8.4h-3.7v-12h3.4zM145.1 72.6c.5 0 .9-.1 1.2-.4.3-.3.4-.7.4-1.2h3.5c0 1.3-.5 2.4-1.4 3.2-.9.8-2.1 1.3-3.6 1.3-1.7 0-3.1-.5-4.1-1.6-1-1.1-1.5-2.6-1.5-4.5v-.2c0-1.2.2-2.3.7-3.2.4-.9 1.1-1.6 1.9-2.1.8-.5 1.8-.7 3-.7 1.5 0 2.8.4 3.7 1.3.9.9 1.4 2 1.4 3.5h-3.5c0-.6-.2-1.1-.5-1.4-.3-.3-.7-.5-1.2-.5-1 0-1.5.6-1.7 1.8-.1.4-.1.9-.1 1.6 0 1.2.1 2 .4 2.5.3.4.8.6 1.4.6zM157.5 75.5c-1.8 0-3.3-.5-4.4-1.6-1.1-1.1-1.7-2.5-1.7-4.3v-.3c0-1.2.2-2.3.7-3.2.5-.9 1.1-1.7 2-2.2.9-.5 1.9-.8 3.1-.8 1.7 0 3 .5 4 1.6 1 1 1.5 2.5 1.5 4.3v1.4h-7.4c.1.7.4 1.2.9 1.6.4.4 1 .6 1.7.6 1.2 0 2.1-.4 2.8-1.2l1.7 2c-.5.6-1.1 1.1-2 1.5-1 .4-1.9.6-2.9.6zm-.4-9.5c-1.1 0-1.7.7-1.9 2.2h3.7v-.3c0-.6-.1-1.1-.5-1.4-.2-.3-.7-.5-1.3-.5zM85.3 89.4V96H84V80h5.5c1.7 0 3 .4 3.9 1.3 1 .9 1.4 2 1.4 3.5s-.5 2.7-1.4 3.5c-.9.8-2.3 1.2-4 1.2h-4.1zm0-1.1h4.1c1.3 0 2.3-.3 3-.9.7-.6 1-1.5 1-2.6s-.3-2-1-2.7c-.7-.7-1.7-1-2.9-1h-4.2v7.2zM105.2 94.5c-.8 1.2-2.1 1.7-3.8 1.7-1.3 0-2.2-.4-2.9-1.1-.7-.7-1-1.8-1-3.3V84h1.3v7.6c0 2.3.9 3.4 2.8 3.4s3.1-.8 3.6-2.4V84h1.3v12h-1.3v-1.5zM119.6 90.1c0 1.9-.4 3.3-1.2 4.4-.8 1.1-1.9 1.6-3.3 1.6-1.7 0-2.9-.6-3.8-1.9l-.1 1.6H110V79.1h1.3v6.7c.8-1.3 2.1-2 3.7-2 1.4 0 2.5.5 3.3 1.6.8 1.1 1.2 2.6 1.2 4.5v.2zm-1.4-.2c0-1.6-.3-2.8-.9-3.6-.6-.9-1.5-1.3-2.6-1.3-.8 0-1.6.2-2.1.6-.6.4-1 1-1.3 1.8v5.4c.7 1.5 1.8 2.2 3.5 2.2 1.1 0 1.9-.4 2.6-1.3.5-.8.8-2.1.8-3.8zM123.9 96h-1.3V79.1h1.3V96zM127.4 80.6c0-.2.1-.5.2-.6s.4-.3.7-.3c.3 0 .5.1.7.3.2.2.2.4.2.6 0 .2-.1.5-.2.6-.2.2-.4.3-.7.3-.3 0-.5-.1-.7-.3-.1-.1-.2-.3-.2-.6zM129 96h-1.3V84.1h1.3V96zM139.7 92.9c0-.7-.3-1.2-.8-1.6-.5-.4-1.3-.7-2.4-.9-1.1-.2-1.9-.5-2.5-.8-.6-.3-1-.6-1.3-1.1-.3-.4-.4-.9-.4-1.5 0-.9.4-1.7 1.2-2.3.8-.6 1.8-.9 3-.9 1.3 0 2.4.3 3.2 1 .8.7 1.2 1.5 1.2 2.6h-1.3c0-.7-.3-1.3-.9-1.7-.6-.5-1.3-.7-2.2-.7-.9 0-1.6.2-2.1.6-.5.4-.8.9-.8 1.5s.2 1.1.7 1.4c.4.3 1.2.6 2.4.9 1.2.3 2 .6 2.6.9.6.3 1 .7 1.3 1.1.3.4.4 1 .4 1.6 0 1-.4 1.8-1.2 2.4-.8.6-1.9.9-3.2.9-1.4 0-2.5-.3-3.4-1-.9-.7-1.3-1.5-1.3-2.6h1.3c.1.8.4 1.4 1 1.8.6.4 1.4.6 2.4.6.9 0 1.7-.2 2.2-.6.6-.4.9-.9.9-1.6zM145.3 86.1c.4-.7 1-1.3 1.7-1.7.7-.4 1.4-.6 2.2-.6 1.3 0 2.2.4 2.9 1.1.6.7.9 1.8.9 3.2V96h-1.3v-7.8c0-1.1-.2-1.9-.7-2.4-.4-.5-1.2-.8-2.1-.8-.8 0-1.5.3-2.2.8-.6.5-1.1 1.2-1.4 2.1V96H144V79.1h1.3v7zM156.3 80.6c0-.2.1-.5.2-.6s.4-.3.7-.3c.3 0 .5.1.7.3.2.2.2.4.2.6 0 .2-.1.5-.2.6-.2.2-.4.3-.7.3-.3 0-.5-.1-.7-.3-.1-.1-.2-.3-.2-.6zm1.6 15.4h-1.3V84.1h1.3V96zM162.7 84.1v2c.4-.7 1-1.3 1.7-1.7.7-.4 1.4-.6 2.2-.6 1.3 0 2.2.4 2.9 1.1.6.7.9 1.8.9 3.2V96h-1.3v-7.8c0-1.1-.2-1.9-.7-2.4-.4-.5-1.2-.8-2.1-.8-.8 0-1.5.3-2.2.8-.6.5-1.1 1.2-1.4 2.1V96h-1.3V84.1h1.3zM173.3 89.9c0-1.9.4-3.3 1.2-4.4.8-1.1 1.9-1.6 3.4-1.6 1.6 0 2.9.6 3.7 1.9l.1-1.7h1.2v11.7c0 1.5-.4 2.8-1.3 3.6-.9.9-2 1.3-3.5 1.3-.8 0-1.6-.2-2.4-.6-.8-.4-1.3-.9-1.8-1.5l.7-.8c.9 1.1 2 1.7 3.3 1.7 1.1 0 2-.3 2.6-1 .6-.7.9-1.6 1-2.7v-1.5c-.8 1.2-2.1 1.8-3.7 1.8-1.4 0-2.5-.6-3.3-1.7-.8-1.1-1.3-2.6-1.3-4.5zm1.3.2c0 1.5.3 2.7.9 3.6.6.9 1.5 1.3 2.6 1.3 1.6 0 2.8-.7 3.4-2.2v-5.5c-.3-.8-.8-1.3-1.3-1.7-.6-.4-1.3-.6-2.1-.6-1.1 0-2 .4-2.6 1.3-.5.9-.9 2.1-.9 3.8z"/><g><path class="st4" d="M255.2 40.2h-1.8v.6h1v1c-.1.1-.2.2-.4.2-.2.1-.4.1-.6.1-.4 0-.7-.1-.9-.4-.2-.3-.3-.6-.3-1v-1c0-.4.1-.7.3-1 .2-.3.5-.4.8-.4.3 0 .6.1.8.3.2.2.3.4.3.7h.8c0-.5-.2-.8-.5-1.1-.3-.3-.8-.4-1.4-.4-.6 0-1.1.2-1.4.6-.4.4-.5.9-.5 1.5v1c0 .6.2 1.1.6 1.5.4.4.9.6 1.5.6.5 0 .9-.1 1.2-.2.3-.2.5-.3.7-.5v-2.1zm-5.7-2.4h-.8v3.6l-2.2-3.6h-.8v5h.8v-3.6l2.2 3.6h.8v-5zm-5.9 0h-.8v5h.8v-5zm-2.4 0h-3.8v.7h1.5v4.3h.8v-4.3h1.5v-.7zm-7 1l.7 2.1h-1.5l.8-2.1zm1.3 3.9h.8l-1.8-5h-.8l-1.8 5h.8l.4-1.2h1.9l.5 1.2zm-7.7-4.3h1c.3 0 .5.1.7.2.2.1.2.3.2.6s-.1.5-.2.6c-.2.1-.4.2-.7.2h-1v-1.6zm1.1 2.3c.3 0 .5.1.6.2.1.2.2.4.2.6v.9c0 .2.1.3.2.4h.9v-.1c-.1-.1-.1-.2-.2-.3 0-.1-.1-.3-.1-.4v-.4c0-.3-.1-.5-.2-.7-.1-.2-.3-.3-.6-.4.3-.1.4-.3.6-.4.1-.2.2-.4.2-.7 0-.5-.2-.8-.5-1.1-.3-.3-.7-.4-1.3-.4h-1.8v5h.8v-2.1h1.2zm-6.5-2.3h.8c.3 0 .5.1.7.2.2.1.2.3.2.5s-.1.4-.2.5c-.1.1-.4.2-.6.2h-.9v-1.4zm1.1 2.1c.3 0 .5.1.6.2.1.1.2.3.2.6 0 .2-.1.4-.2.6-.2.1-.4.2-.7.2h-1v-1.6h1.1zm-.1 2.2c.5 0 1-.1 1.3-.4.3-.2.5-.6.5-1.1 0-.3-.1-.5-.2-.8-.2-.2-.4-.4-.7-.4.2-.1.4-.2.5-.4.1-.2.2-.4.2-.6 0-.5-.2-.8-.5-1-.3-.2-.7-.3-1.3-.3h-1.7v5h1.9zm-3.8-2.9h-2.2v-1.4h2.5v-.7h-3.3v5h3.4V42h-2.5v-1.6h2.2v-.6zm-6.8-2h-.8v5h3.1v-.7h-2.3v-4.3zm-2.7 2h-2.2v-1.4h2.5v-.7H207v5h3.4V42h-2.5v-1.6h2.2v-.6zm-5.6 1.3c0 .3-.1.6-.3.8-.2.2-.4.3-.8.3-.3 0-.6-.1-.8-.4-.2-.3-.3-.6-.3-1v-1c0-.4.1-.7.3-1 .2-.3.5-.4.8-.4.4 0 .6.1.8.3.2.2.3.4.3.8h.8c0-.5-.2-.9-.5-1.2-.3-.3-.8-.5-1.4-.5-.6 0-1 .2-1.4.6-.4.4-.5.9-.5 1.5v.9c0 .6.2 1.1.5 1.5.4.4.8.6 1.4.6.6 0 1-.2 1.4-.5.3-.3.5-.7.5-1.2h-.8z"/></g><g><path class="st4" d="M247.3 95.1c-.2.1-.4.2-.7.2-.3 0-.6-.1-.8-.2-.2-.1-.3-.4-.3-.7h-.8c0 .5.2.9.6 1.1.4.3.8.4 1.4.4.5 0 1-.1 1.3-.4.3-.2.5-.6.5-1s-.1-.7-.4-1c-.3-.3-.7-.5-1.2-.6-.4-.1-.7-.2-.9-.4-.2-.1-.3-.3-.3-.5s.1-.4.2-.5c.2-.1.4-.2.7-.2.3 0 .6.1.7.2.2.2.3.4.3.6h.8c0-.4-.1-.8-.5-1.1-.3-.3-.8-.4-1.3-.4s-1 .1-1.3.4c-.3.3-.5.6-.5 1s.1.7.4.9c.3.2.7.4 1.3.6.4.1.7.2.8.4.2.1.2.3.2.5.1.4 0 .6-.2.7m-7.1-3.5h1c.3 0 .5.1.7.2.2.1.2.3.2.6s-.1.5-.2.6c-.2.1-.4.2-.7.2h-1v-1.6zm1.1 2.2c.3 0 .5.1.6.2.1.2.2.4.2.6v.9c0 .2.1.3.2.4h.9v-.1c-.1-.1-.1-.2-.2-.3 0-.1-.1-.3-.1-.4v-.4c0-.3-.1-.5-.2-.7-.1-.2-.3-.3-.6-.4.3-.1.4-.3.6-.4.1-.2.2-.4.2-.7 0-.5-.2-.8-.5-1.1-.3-.3-.7-.4-1.3-.4h-1.8v5h.8v-2.1h1.2zm-5.6-1.9l.7 2.1H235l.7-2.1zm1.4 4h.8l-1.8-5h-.8l-1.8 5h.8l.4-1.2h1.9l.5 1.2zm-5-2.9h-2.2v-1.4h2.5v-.7h-3.3v5h3.4v-.7H230v-1.6h2.2V93zm-7.8-2.1h-.9l1.7 3.2v1.8h.8v-1.7l1.7-3.2h-.9l-1.2 2.4-1.2-2.5z"/></g><path class="st1" d="M210.9 47.2h-9.8V57h5.4l-.1 1.7V61h9.9V47.2z"/><path class="st2" d="M206.4 61v11.3l9.9 9.8V61z"/><path class="st5" d="M206.4 95.9h9.9V82.1l-9.9-9.8z"/><g><path class="st1" d="M249 51.4c-3.5-2.9-7.9-4.6-12.7-4.6-1 0-2 .1-2.9.2h-.1c-1.1.2-2.1.4-3.1.8-2.4.8-4.6 2-6.5 3.6H249z"/><path class="st2" d="M222.9 81.6V52c-4.1 3.7-6.6 9-6.6 14.8s2.5 11.2 6.6 14.8zM230.6 59.1c1.6-1.2 3.5-1.9 5.6-1.9 3.3 0 6.2 1.7 7.9 4.2.1.1.2.3.2.4.9 1.4 1.4 3.1 1.4 4.9 0 2.1-.7 4-1.9 5.6l7.5 7.5c.6-.7 1.2-1.5 1.7-2.3 2-3.1 3.2-6.8 3.2-10.8 0-2.4-.4-4.7-1.2-6.9-1.2-3.4-3.4-6.3-6.1-8.6h-25.4c-.1.1-.2.2-.4.3l7.5 7.6z"/><path class="st5" d="M222.9 81.6c.9.8 2 1.6 3 2.3 3 1.8 6.6 2.9 10.4 2.9 6 0 11.4-2.7 15.1-6.9l-7.5-7.5c-.6.9-1.4 1.6-2.3 2.2h-.1s-.1 0-.1.1c-1.2.8-2.7 1.4-4.2 1.5h-1c-3.9 0-7.3-2.4-8.7-5.8-.5-1.1-.8-2.4-.8-3.7 0-2 .6-3.8 1.6-5.3.6-.9 1.4-1.7 2.2-2.3l-7.5-7.5-.3.3v29.7z"/></g></svg>