<svg width="30" height="30" fill="none" xmlns="http://www.w3.org/2000/svg"><path d="M28.648 28.574h.25V14.924l-.074-.073L15.369 1.498l-.426-.423V14.721H1.188l.43.428 13.456 13.353.073.072h13.501zm-13.218-.69L2.862 15.412h12.772V2.732L28.206 15.21v12.675H15.43z" fill="#fff" stroke="#fff" stroke-width=".5"/><path d="M15.635 15.066v-.25h-.692V28.48h.692V15.067z" fill="#fff" stroke="#fff" stroke-width=".5"/><path d="M15.536 14.83l-.178-.176-.177.176-.136.135-.177.176.177.176 13.262 13.16.177.177.178-.177.135-.134.178-.176-.178-.176-13.261-13.16z" fill="#fff" stroke="#fff" stroke-width=".5"/><path d="M28.802 14.971v-.25H15.04v.69h13.763v-.44z" fill="#fff" stroke="#fff" stroke-width=".5"/></svg>