<svg width="76" height="41" fill="none" xmlns="http://www.w3.org/2000/svg"><path d="M15.426 0l15.426 15.102H15.426V0z" fill="#ED1C24"/><path d="M15.426 30.204L0 15.102h15.426v15.102zm15.426 0L15.426 15.102h15.426v15.102z" fill="#B51218"/><path d="M15.426 15.102l15.426 15.102H15.426V15.102z" fill="#790000"/><path d="M39.468 19.707c-.079.687-.324 1.222-.758 1.582-.424.37-.992.545-1.706.545-.501 0-.936-.12-1.315-.36a2.327 2.327 0 01-.88-1.036 3.672 3.672 0 01-.313-1.528v-.851c0-.578.1-1.102.313-1.55.211-.447.512-.796.902-1.036s.836-.371 1.349-.371c.713 0 1.282.185 1.694.567.413.382.658.906.725 1.572h-.569c-.145-1.113-.758-1.67-1.85-1.67-.602 0-1.092.218-1.449.666-.357.447-.535 1.058-.535 1.844v.796c0 .753.178 1.364.524 1.812.345.447.825.676 1.426.676.591 0 1.037-.141 1.338-.414.301-.273.49-.699.557-1.244h.547zm4.38 2.04c-.056-.152-.09-.382-.1-.676-.19.25-.435.436-.736.567a2.336 2.336 0 01-.947.196c-.48 0-.87-.13-1.16-.392a1.25 1.25 0 01-.446-.993c0-.47.201-.851.602-1.124.402-.273.97-.415 1.683-.415h.992v-.556c0-.35-.111-.622-.323-.819-.223-.196-.535-.294-.958-.294-.38 0-.703.098-.948.283-.256.197-.379.426-.379.688h-.546c0-.382.178-.72.546-1.004.368-.284.825-.426 1.36-.426.557 0 .992.131 1.315.404.324.273.48.655.49 1.135v2.302c0 .47.056.819.157 1.059v.054h-.602v.011zm-1.728-.382c.368 0 .691-.087.981-.262a1.54 1.54 0 00.635-.698v-1.07h-.98c-.547.012-.981.11-1.282.295-.312.186-.468.448-.468.786 0 .273.1.502.312.677.2.174.468.272.802.272zm4.158-4.485l.022.83c.19-.295.423-.524.702-.688.279-.152.59-.24.925-.24.535 0 .925.142 1.193.437.256.294.39.73.39 1.32v3.197h-.546V18.55c0-.436-.1-.764-.279-.971-.19-.218-.48-.317-.892-.317-.345 0-.646.11-.902.317a1.774 1.774 0 00-.58.84v3.34h-.546v-4.867h.513v-.011zm7.779 4.867c-.055-.152-.089-.382-.1-.676-.19.25-.435.436-.736.567-.3.131-.612.196-.947.196-.48 0-.87-.13-1.16-.392a1.25 1.25 0 01-.445-.993c0-.47.2-.851.602-1.124.401-.273.97-.415 1.683-.415h.992v-.556c0-.35-.111-.622-.323-.819-.223-.196-.535-.294-.959-.294-.379 0-.702.098-.947.283-.256.197-.38.426-.38.688h-.545c0-.382.178-.72.546-1.004.368-.284.825-.426 1.36-.426.557 0 .992.131 1.315.404.323.273.48.655.49 1.135v2.302c0 .47.056.819.156 1.059v.054h-.602v.011zm-1.727-.382c.368 0 .69-.087.98-.262.29-.174.502-.403.636-.698v-1.07h-.98c-.547.012-.982.11-1.283.295-.312.186-.468.448-.468.786 0 .273.1.502.312.677.201.174.468.272.803.272zm3.41-2.095c0-.753.168-1.353.513-1.811.346-.447.814-.677 1.404-.677.67 0 1.182.262 1.539.775V14.83h.546v6.907h-.513l-.022-.643c-.357.49-.87.741-1.55.741a1.674 1.674 0 01-1.382-.676c-.345-.447-.523-1.059-.523-1.833v-.055h-.012zm.558.098c0 .622.122 1.113.379 1.474.256.36.613.534 1.07.534.68 0 1.159-.294 1.438-.873v-2.28c-.29-.633-.758-.95-1.438-.95-.468 0-.825.175-1.081.535-.246.338-.368.862-.368 1.56zm4.859-3.895a.39.39 0 01.1-.262c.068-.076.157-.11.28-.11a.358.358 0 01.378.372.342.342 0 01-.1.25.393.393 0 01-.279.1.393.393 0 01-.278-.1.342.342 0 01-.1-.25zm.647 6.274h-.546v-4.866h.546v4.866zm4.636 0c-.055-.152-.089-.382-.1-.676a1.8 1.8 0 01-.736.567c-.3.131-.612.196-.947.196-.48 0-.87-.13-1.159-.392a1.25 1.25 0 01-.446-.993c0-.47.2-.851.602-1.124.401-.273.97-.415 1.683-.415h.992v-.556c0-.35-.111-.622-.323-.819-.223-.196-.535-.294-.959-.294-.379 0-.702.098-.947.283-.256.197-.38.426-.38.688h-.545c0-.382.178-.72.546-1.004.368-.284.825-.426 1.36-.426.557 0 .992.131 1.315.404.323.273.48.655.49 1.135v2.302c0 .47.056.819.156 1.059v.054h-.602v.011zm-1.727-.382c.368 0 .69-.087.98-.262a1.55 1.55 0 00.636-.698v-1.07h-.98c-.547.012-.982.11-1.283.295-.312.186-.468.448-.468.786 0 .273.1.502.312.677.201.174.469.272.803.272zm4.147-4.485l.021.83c.19-.295.424-.524.703-.688.278-.152.59-.24.925-.24.535 0 .925.142 1.192.437.257.294.39.73.39 1.32v3.197h-.546V18.55c0-.436-.1-.764-.278-.971-.19-.218-.48-.317-.892-.317-.346 0-.647.11-.903.317a1.774 1.774 0 00-.58.84v3.34h-.546v-4.867h.513v-.011zM37.84 28.458c0-.23-.078-.415-.245-.535-.167-.13-.457-.261-.88-.403a8.549 8.549 0 01-1.026-.404c-.87-.415-1.304-.993-1.304-1.713 0-.36.111-.688.323-.96.212-.273.524-.492.914-.644.39-.153.836-.23 1.338-.23.479 0 .914.088 1.293.252.379.163.68.403.891.72.212.305.312.665.312 1.069h-1.605c0-.262-.078-.47-.245-.622-.167-.142-.39-.218-.68-.218-.29 0-.513.065-.68.185a.557.557 0 00-.245.47c0 .163.09.316.279.458.178.142.501.273.97.425.456.142.846.306 1.136.47.725.403 1.081.97 1.081 1.69 0 .58-.222 1.027-.657 1.354-.446.327-1.048.491-1.817.491a3.715 3.715 0 01-1.471-.284c-.435-.185-.77-.447-.992-.785a1.986 1.986 0 01-.334-1.146h1.616c0 .35.089.611.278.775.19.163.49.25.903.25.268 0 .48-.054.635-.163a.712.712 0 00.212-.502zm4.47.655c.223 0 .39-.055.501-.175.123-.12.179-.273.179-.48h1.448c0 .535-.2.971-.59 1.31-.39.338-.892.512-1.505.512-.724 0-1.293-.218-1.705-.665-.413-.448-.624-1.059-.624-1.844v-.055c0-.491.089-.927.278-1.298.19-.371.457-.666.803-.873.345-.208.758-.306 1.237-.306.646 0 1.16.175 1.538.524.379.349.569.83.569 1.43h-1.45c0-.252-.066-.448-.189-.579a.66.66 0 00-.502-.207c-.4 0-.635.25-.702.753a5.073 5.073 0 00-.033.654c0 .491.056.83.178 1.015.112.186.301.284.569.284zm2.775-5.041c0-.219.078-.393.234-.535.156-.142.368-.207.624-.207.257 0 .457.065.624.207a.687.687 0 01.234.535.687.687 0 01-.234.534c-.156.142-.367.207-.624.207-.256 0-.457-.065-.624-.207a.703.703 0 01-.234-.535zm1.638 6.121h-1.549v-4.867h1.55v4.867zm3.367.087c-.758 0-1.383-.218-1.85-.665-.469-.448-.703-1.026-.703-1.735v-.131c0-.502.09-.939.279-1.32.19-.382.468-.677.825-.884.356-.208.79-.317 1.281-.317.703 0 1.249.207 1.65.633.401.425.602 1.015.602 1.779v.589h-3.077c.056.273.179.49.368.644.19.152.424.229.725.229.49 0 .87-.164 1.148-.502l.702.818c-.19.262-.468.47-.825.622-.345.164-.724.24-1.126.24zm-.179-3.873c-.457 0-.724.294-.814.883h1.56v-.12c.012-.24-.055-.436-.189-.567-.122-.131-.312-.196-.557-.196zm4.314-1.081l.055.568c.346-.437.814-.666 1.416-.666.513 0 .903.153 1.159.458.256.306.39.764.401 1.364v3.132h-1.549v-3.077c0-.251-.056-.426-.156-.546-.1-.12-.29-.174-.546-.174a.772.772 0 00-.68.349v3.437h-1.55v-4.866h1.45v.021zm5.985 3.787c.223 0 .39-.055.502-.175.122-.12.178-.273.178-.48h1.449c0 .535-.2.971-.591 1.31-.39.338-.892.512-1.505.512-.724 0-1.293-.218-1.705-.665-.412-.448-.624-1.059-.624-1.844v-.055c0-.491.089-.927.279-1.298a2.12 2.12 0 01.802-.873c.346-.208.758-.306 1.237-.306.647 0 1.16.175 1.538.524.38.349.569.83.569 1.43h-1.45c0-.252-.066-.448-.189-.579a.66.66 0 00-.501-.207c-.401 0-.636.25-.702.753a5.07 5.07 0 00-.034.654c0 .491.056.83.178 1.015.123.186.313.284.569.284zm5.194 1.167c-.758 0-1.382-.218-1.85-.665-.468-.448-.703-1.026-.703-1.735v-.131c0-.502.09-.939.28-1.32.189-.382.467-.677.824-.884.357-.208.791-.317 1.282-.317.702 0 1.248.207 1.65.633.4.425.601 1.015.601 1.779v.589h-3.065c.056.273.178.49.368.644.19.152.423.229.724.229.49 0 .87-.164 1.148-.502l.703.818c-.19.262-.469.47-.825.622-.346.164-.725.24-1.137.24zm-.167-3.873c-.457 0-.725.294-.814.883h1.56v-.12c.012-.24-.055-.436-.189-.567-.123-.131-.312-.196-.557-.196zm-29.949 9.569v2.663h-.569v-6.547h2.285c.691 0 1.249.174 1.65.523.401.35.602.83.602 1.44 0 .612-.19 1.092-.58 1.42-.39.337-.947.501-1.683.501h-1.705zm0-.469h1.716c.546 0 .97-.13 1.26-.382.29-.25.434-.611.434-1.07 0-.458-.145-.818-.434-1.08-.29-.272-.691-.403-1.215-.414h-1.75v2.946h-.011zm8.303 2.521c-.334.469-.858.709-1.582.709-.535 0-.937-.153-1.204-.447-.279-.306-.412-.742-.424-1.343v-3.164h.547v3.099c0 .928.379 1.386 1.148 1.386.79 0 1.304-.328 1.515-.971v-3.525h.547v4.867h-.535l-.012-.611zm5.975-1.768c0 .764-.168 1.364-.513 1.811-.346.448-.803.666-1.382.666-.691 0-1.215-.251-1.572-.753l-.022.666h-.513v-6.908h.546v2.74c.346-.535.87-.797 1.55-.797.59 0 1.047.218 1.393.654.346.437.513 1.048.513 1.834v.087zm-.558-.098c0-.644-.122-1.135-.379-1.484-.256-.35-.613-.524-1.07-.524-.356 0-.646.087-.891.25a1.546 1.546 0 00-.558.743v2.193c.28.611.758.917 1.46.917.458 0 .803-.175 1.06-.524.256-.35.378-.873.378-1.571zm2.386 2.477h-.547v-6.907h.547v6.907zm1.46-6.275c0-.098.033-.185.1-.261.067-.077.156-.11.279-.11.111 0 .211.033.278.11a.35.35 0 01.1.261c0 .11-.033.186-.1.251a.393.393 0 01-.278.099.393.393 0 01-.279-.099.342.342 0 01-.1-.25zm.646 6.275h-.546v-4.867h.546v4.867zm4.47-1.233a.785.785 0 00-.324-.644c-.223-.164-.546-.284-.992-.382-.445-.087-.78-.196-1.025-.316a1.385 1.385 0 01-.546-.437 1.05 1.05 0 01-.178-.622c0-.382.167-.698.49-.95.323-.25.747-.37 1.26-.37.557 0 1.002.13 1.337.404.334.272.502.622.502 1.047h-.547a.858.858 0 00-.367-.71c-.246-.185-.547-.283-.926-.283-.356 0-.646.076-.869.24a.7.7 0 00-.323.611c0 .24.089.437.278.568.179.13.513.25.992.37.48.11.848.23 1.082.36.245.132.423.273.535.459.111.175.178.393.178.644 0 .414-.167.742-.513.982-.334.25-.78.37-1.326.37-.58 0-1.048-.141-1.405-.414-.356-.273-.535-.622-.535-1.036h.547a.929.929 0 00.4.73c.246.175.58.263.993.263.379 0 .69-.088.925-.251.245-.175.357-.382.357-.633zm2.34-2.816a1.95 1.95 0 01.691-.676c.279-.164.591-.24.925-.24.535 0 .925.142 1.193.436.256.295.39.731.39 1.32v3.198h-.546V35.43c0-.437-.1-.764-.279-.971-.19-.219-.479-.317-.891-.317-.346 0-.647.11-.903.316a1.775 1.775 0 00-.58.84v3.34h-.546v-6.907h.546v2.858zm4.581-2.226c0-.098.034-.185.1-.261.067-.077.156-.11.28-.11a.358.358 0 01.378.371c0 .11-.033.186-.1.251a.393.393 0 01-.279.099.393.393 0 01-.278-.099.342.342 0 01-.1-.25zm.647 6.275h-.546v-4.867h.546v4.867zm2.017-4.867l.022.83c.19-.295.424-.524.703-.688.278-.153.59-.24.925-.24.535 0 .925.142 1.192.436.257.295.39.732.39 1.32v3.198h-.546V35.43c0-.437-.1-.764-.278-.971-.19-.219-.48-.317-.892-.317-.346 0-.647.11-.903.316a1.775 1.775 0 00-.58.84v3.34h-.546v-4.867h.513zm4.425 2.39c0-.764.167-1.364.513-1.812.345-.447.813-.665 1.404-.665.68 0 1.193.262 1.55.796l.022-.698h.512v4.768c0 .622-.178 1.124-.535 1.484-.356.372-.847.546-1.46.546-.345 0-.68-.076-.992-.23a2.02 2.02 0 01-.746-.6l.311-.327c.39.47.848.699 1.394.699.457 0 .813-.131 1.07-.393.256-.262.39-.633.401-1.102v-.611c-.357.48-.87.72-1.538.72-.58 0-1.037-.23-1.393-.677-.346-.447-.524-1.058-.524-1.822v-.076h.011zm.557.098c0 .622.123 1.113.38 1.473.256.36.612.535 1.07.535.68 0 1.158-.295 1.437-.895v-2.259c-.134-.316-.312-.545-.557-.709a1.496 1.496 0 00-.859-.251c-.468 0-.824.175-1.08.535-.257.349-.39.873-.39 1.571z" fill="#231F20"/></svg>