<svg id="Layer_1" data-name="Layer 1" xmlns="http://www.w3.org/2000/svg" viewBox="0 0 4515.32 1000"><defs><style>.cls-1{fill:#fff;}</style></defs><path class="cls-1" d="M2644.08,227.49a100.79,100.79,0,0,1-35.41-6,74.32,74.32,0,0,1-27.2-17.19,77,77,0,0,1-17.35-27.1,98.28,98.28,0,0,1-6.07-35.33H2615q0,15.53,7.61,24.2t21.63,8.69q14,0,21.77-8.53t7.77-24.07V3.35h55.73V141.6q0,19.8-5.93,35.65a73.85,73.85,0,0,1-44.09,44.29Q2663.85,227.48,2644.08,227.49Z"/><path class="cls-1" d="M2908.68,227.49a128.39,128.39,0,0,1-47-8.37,111,111,0,0,1-37.09-23.46,106.61,106.61,0,0,1-24.49-36.08,117.52,117.52,0,0,1-8.82-46,114.39,114.39,0,0,1,8.82-45.36,108.84,108.84,0,0,1,24.49-35.94,111.53,111.53,0,0,1,37.25-23.75A126.42,126.42,0,0,1,2908.68,0a129.63,129.63,0,0,1,47.15,8.37,110.93,110.93,0,0,1,37.11,23.29,105,105,0,0,1,24.17,35.79q8.66,20.88,8.66,46.13a116.53,116.53,0,0,1-8.82,45.68,107.31,107.31,0,0,1-24.33,36.09A111.54,111.54,0,0,1,2955.67,219,126.38,126.38,0,0,1,2908.68,227.49Zm.16-52.68a66.84,66.84,0,0,0,24.66-4.42,54,54,0,0,0,19.19-12.49A57.09,57.09,0,0,0,2965,138.57a68.3,68.3,0,0,0,4.42-25A72.16,72.16,0,0,0,2965.19,88a53.41,53.41,0,0,0-31.53-31.66,68.43,68.43,0,0,0-24.82-4.27,66,66,0,0,0-24.51,4.4A56.34,56.34,0,0,0,2865.14,69a55.33,55.33,0,0,0-12.49,19.48,69.47,69.47,0,0,0-4.42,25.12,69.08,69.08,0,0,0,4.42,25.28A57,57,0,0,0,2865,158.21a52.79,52.79,0,0,0,19,12.33A68.86,68.86,0,0,0,2908.84,174.81Z"/><path class="cls-1" d="M3187.54,227.49q-23.14,0-41.88-7.16a89.42,89.42,0,0,1-31.82-20.24,88.29,88.29,0,0,1-20.1-31.84q-7-18.72-7-41.88V3.35h55.73V127c0,15.42,4,27.32,11.88,35.62s19.07,12.49,33.48,12.49,25.54-4.16,33.35-12.49,11.74-20.2,11.74-35.62V3.35H3288v123q0,23.17-7,41.88a88.18,88.18,0,0,1-20.11,31.84,89.81,89.81,0,0,1-31.68,20.24Q3210.7,227.47,3187.54,227.49Z"/><path class="cls-1" d="M3442.7,158.05h-26.49v66.09h-55.73V3.35h86.34q21,0,37.53,5.33a81,81,0,0,1,28.28,15.37,65.31,65.31,0,0,1,17.78,24.23q6.09,14.14,6.09,32.12,0,23.13-10.91,40.2T3495,147.39l46.67,76.75h-64.55ZM3416.21,106h31.37q15.52,0,24.05-6.54t8.54-19q0-12.8-8.39-19.2c-5.59-4.26-13.54-6.38-23.91-6.38h-31.66Z"/><path class="cls-1" d="M3604.06,3.35h47.21l102,127.6V3.35h54.82V224.14h-47.21l-102-126.69V224.14h-54.82Z"/><path class="cls-1" d="M4023.27,184.24h-87.1l-14,39.9h-60.61L3947.14,3.35h65.78l85.57,220.79h-61.2Zm-17.05-48.11-23.75-67.87-2.74-11.62L3977,68.56l-23.75,67.57Z"/><path class="cls-1" d="M4301.67,171.75v52.39H4152.14V3.35h56.33v168.4Z"/><path class="cls-1" d="M4434.31,227.49a93.78,93.78,0,0,1-23-2.6,86.54,86.54,0,0,1-18.44-6.9,69.06,69.06,0,0,1-14.32-9.82,76,76,0,0,1-10.34-11.34,82.9,82.9,0,0,1-14.91-30.25l49.32-14.31a38.85,38.85,0,0,0,5.48,14,30.87,30.87,0,0,0,9.29,9.9c4,2.73,9.28,4.1,16,4.1q11.28,0,18-5.16c4.46-3.45,6.68-8.2,6.68-14.29q0-9.42-6.23-14.75c-4.16-3.55-10.62-6.52-19.35-9l-21.61-6.7q-26.82-7.89-40.66-24.17t-13.86-40a68.68,68.68,0,0,1,5.33-27.52,59.12,59.12,0,0,1,15.07-21A66.18,66.18,0,0,1,4400.5,4.56,101.41,101.41,0,0,1,4431.87,0a99.36,99.36,0,0,1,22.38,2.28,91.71,91.71,0,0,1,17.82,6,60.1,60.1,0,0,1,13.7,8.52,93.07,93.07,0,0,1,10.06,9.74A72.13,72.13,0,0,1,4510.44,53l-49.33,17.34a36.34,36.34,0,0,0-4.88-11.87,31.18,31.18,0,0,0-8.66-8.37q-5.35-3.51-14.77-3.51c-6.5,0-11.74,1.59-15.68,4.72s-5.95,7.47-5.95,13a17.33,17.33,0,0,0,6.7,14q6.69,5.48,21,9.74l23.43,7.61q25.91,7.92,39.45,23.91T4515.32,159a67.59,67.59,0,0,1-5.79,28.47,60.68,60.68,0,0,1-16.28,21.47,75.2,75.2,0,0,1-25.44,13.7A107.55,107.55,0,0,1,4434.31,227.49Z"/><path class="cls-1" d="M1667.08,795.94V3.49H568.74V284.42H592.5C603.66,34.25,899.91,27.24,899.91,27.24h26.56V818.31c0,95-60.1,145.36-118.79,145.36v23.75h440.18V963.67c-58.7,0-118.78-50.32-118.78-145.36V27.24h26.55s297.63,7,308.82,257.18V795.94c0,95-33.53,167.73-92.22,167.73v23.75H1832V963.67C1771.87,963.67,1667.08,953.87,1667.08,795.94Z"/><path class="cls-1" d="M1753.71,3.49V27.24c118.77,4.21,209.6,32.15,209.6,258.56,0,225-90.83,254.38-209.6,258.57v23.77c258.51-4.21,438.77-60.1,438.77-282.34S2012.22,9.09,1753.71,3.49Z"/><path class="cls-1" d="M549.17,916.15c-132.75,0-234.76-97.84-234.76-262.77V150.25c0-100.64,69.87-123,130-123V3.49H0V27.24c61.49,0,111.79,37.75,111.79,123V643.6c0,227.83,156.51,356.4,346.56,356.4,106.29,0,276.41-36.69,320.61-239.81H761.19C722.75,864,630.72,916.15,549.17,916.15Z"/><rect class="cls-1" x="2558.06" y="351.99" width="1957.26" height="20.3"/><path class="cls-1" d="M2616.86,636.68a68.27,68.27,0,0,1-24.43-4.18,52,52,0,0,1-18.57-11.82,51.19,51.19,0,0,1-11.72-18.56,69.38,69.38,0,0,1-4.09-24.42V505.93h32.52v72.13q0,13.5,6.92,20.77t19.55,7.28q12.6,0,19.45-7.28t6.84-20.77V505.93h32.15V577.7a68.93,68.93,0,0,1-4.1,24.42,51.06,51.06,0,0,1-11.72,18.56,52.14,52.14,0,0,1-18.47,11.82A67.48,67.48,0,0,1,2616.86,636.68Z"/><path class="cls-1" d="M2711.31,505.93h27.54l59.5,74.43V505.93h32V634.72h-27.54l-59.5-73.89v73.89h-32Z"/><path class="cls-1" d="M2867.88,505.93h32.87V634.72h-32.87Z"/><path class="cls-1" d="M2925.85,505.93h35.71l33.56,87.39,1.43,6.23,1.61-6.23,33.2-87.39h35.36l-52.23,128.79h-36.06Z"/><path class="cls-1" d="M3182.84,605.77v29H3091.7V505.93h90.42v28.94h-57.91v21.69h54.36v26.65h-54.36v22.56Z"/><path class="cls-1" d="M3265.31,596.18h-15.44v38.54h-32.52V505.93h50.36a71.17,71.17,0,0,1,21.91,3.11,47.17,47.17,0,0,1,16.5,9,38.41,38.41,0,0,1,10.37,14.14,47.21,47.21,0,0,1,3.54,18.73q0,13.5-6.36,23.46A43.63,43.63,0,0,1,3295.83,590l27.22,44.77H3285.4Zm-15.44-30.38h18.3c6,0,10.71-1.29,14-3.82s5-6.25,5-11.11-1.62-8.7-4.87-11.2-7.92-3.73-13.94-3.73h-18.48Z"/><path class="cls-1" d="M3393.17,636.68a54.06,54.06,0,0,1-13.42-1.53,49.76,49.76,0,0,1-10.75-4,39.18,39.18,0,0,1-8.34-5.73,44.27,44.27,0,0,1-6-6.6,48.79,48.79,0,0,1-8.7-17.65l28.79-8.36a22.43,22.43,0,0,0,3.19,8.18,18.19,18.19,0,0,0,5.41,5.77c2.32,1.59,5.43,2.4,9.34,2.4q6.57,0,10.47-3a10,10,0,0,0,3.92-8.35,10.73,10.73,0,0,0-3.65-8.6c-2.44-2.06-6.18-3.81-11.28-5.22l-12.61-3.9q-15.64-4.62-23.71-14.1t-8.09-23.33a39.84,39.84,0,0,1,3.11-16,34.52,34.52,0,0,1,8.79-12.24,38.23,38.23,0,0,1,13.86-7.71,63.83,63.83,0,0,1,31.36-1.33,54.56,54.56,0,0,1,10.39,3.45,36.57,36.57,0,0,1,8,5,56.15,56.15,0,0,1,5.87,5.69,42.27,42.27,0,0,1,8.52,15.44L3408.8,545a21.68,21.68,0,0,0-2.84-6.92,18.11,18.11,0,0,0-5.07-4.9c-2.07-1.35-4.94-2-8.61-2a14.42,14.42,0,0,0-9.16,2.75,9.17,9.17,0,0,0-3.45,7.56,10,10,0,0,0,3.91,8.16c2.59,2.15,6.68,4,12.25,5.69l13.68,4.45q15.1,4.61,23,13.93t7.91,23a39.55,39.55,0,0,1-3.37,16.6,35.3,35.3,0,0,1-9.52,12.53,43.82,43.82,0,0,1-14.83,8A62.51,62.51,0,0,1,3393.17,636.68Z"/><path class="cls-1" d="M3471.78,505.93h32.86V634.72h-32.86Z"/><path class="cls-1" d="M3643.44,536.12h-40.68v98.6h-32.5v-98.6h-40.5V505.93h113.68Z"/><path class="cls-1" d="M3712.55,595.82l-49.72-89.89H3701l26.93,53.65,1,3.55,1.07-3.55,27.26-53.65h37.31l-49.56,89.89v38.9h-32.52Z"/><path class="cls-1" d="M3937.54,636.68a74.69,74.69,0,0,1-27.42-4.9,64.91,64.91,0,0,1-21.65-13.68,61.89,61.89,0,0,1-14.27-21.05,68.58,68.58,0,0,1-5.14-26.81,67,67,0,0,1,5.14-26.48,63.82,63.82,0,0,1,14.27-21,65.61,65.61,0,0,1,21.75-13.86,73.76,73.76,0,0,1,27.32-5,75.64,75.64,0,0,1,27.5,4.9,64.45,64.45,0,0,1,21.63,13.58,61,61,0,0,1,14.12,20.88,69.52,69.52,0,0,1,5.05,26.92,68.28,68.28,0,0,1-5.15,26.65,62.54,62.54,0,0,1-14.2,21,65,65,0,0,1-21.55,13.78A73.58,73.58,0,0,1,3937.54,636.68Zm.08-30.75a39.25,39.25,0,0,0,14.39-2.56,31.42,31.42,0,0,0,11.19-7.29,32.78,32.78,0,0,0,7.19-11.28,39.38,39.38,0,0,0,2.58-14.56,42.19,42.19,0,0,0-2.48-14.93A31.64,31.64,0,0,0,3963.3,544a32,32,0,0,0-11.21-7.19,39.84,39.84,0,0,0-14.47-2.48,38.09,38.09,0,0,0-14.29,2.58,32.74,32.74,0,0,0-11.21,7.27,32.08,32.08,0,0,0-7.27,11.36,43.17,43.17,0,0,0,0,29.4,32.72,32.72,0,0,0,7.19,11.29,30.86,30.86,0,0,0,11.11,7.19A39.84,39.84,0,0,0,3937.62,605.93Z"/><path class="cls-1" d="M4069.86,534.87v24.71h49.39v28.07h-49.39v47.07h-32.51V505.93h87.92v28.94Z"/><path class="cls-1" d="M2671.74,754.37h-40.69V853h-32.49v-98.6h-40.51v-30.2h113.69Z"/><path class="cls-1" d="M2758.68,854.93a74.72,74.72,0,0,1-27.4-4.9,64.41,64.41,0,0,1-21.65-13.68,62.11,62.11,0,0,1-14.28-21.05,68.58,68.58,0,0,1-5.15-26.81,67,67,0,0,1,5.15-26.49,63.7,63.7,0,0,1,14.28-21,65.42,65.42,0,0,1,21.73-13.86,73.84,73.84,0,0,1,27.32-5,75.47,75.47,0,0,1,27.49,4.9,64.24,64.24,0,0,1,21.65,13.58,61.25,61.25,0,0,1,14.1,20.88,69.53,69.53,0,0,1,5.06,26.92,68.28,68.28,0,0,1-5.14,26.65,62.92,62.92,0,0,1-14.19,21A65,65,0,0,1,2786.1,850,73.77,73.77,0,0,1,2758.68,854.93Zm.09-30.75a39.27,39.27,0,0,0,14.4-2.56,31.27,31.27,0,0,0,11.18-7.3,33.45,33.45,0,0,0,7.2-11.28,39.94,39.94,0,0,0,2.57-14.55,41.92,41.92,0,0,0-2.49-14.93,31.4,31.4,0,0,0-7.18-11.28,32.1,32.1,0,0,0-11.2-7.2,40.07,40.07,0,0,0-14.48-2.47,38.29,38.29,0,0,0-14.29,2.57A31.86,31.86,0,0,0,2726,773.82a43.17,43.17,0,0,0,0,29.4,32.85,32.85,0,0,0,7.2,11.28,30.68,30.68,0,0,0,11.1,7.2A40.05,40.05,0,0,0,2758.77,824.18Z"/><path class="cls-1" d="M2906.46,814.42H2891V853H2858.5V724.17h50.36a71.2,71.2,0,0,1,21.91,3.12,47,47,0,0,1,16.49,9,38.29,38.29,0,0,1,10.37,14.13,47.09,47.09,0,0,1,3.55,18.74q0,13.5-6.36,23.45A43.61,43.61,0,0,1,2937,808.2L2964.19,853h-37.65ZM2891,784.05h18.29c6,0,10.71-1.29,14-3.83s5-6.24,5-11.1-1.63-8.7-4.88-11.2-7.91-3.73-13.94-3.73H2891Z"/><path class="cls-1" d="M3055.18,854.93a74.72,74.72,0,0,1-27.4-4.9,64.41,64.41,0,0,1-21.65-13.68,62.11,62.11,0,0,1-14.28-21.05,68.58,68.58,0,0,1-5.15-26.81,67,67,0,0,1,5.15-26.49,63.7,63.7,0,0,1,14.28-21,65.42,65.42,0,0,1,21.73-13.86,73.84,73.84,0,0,1,27.32-5,75.56,75.56,0,0,1,27.5,4.9,64.44,64.44,0,0,1,21.65,13.58,61.36,61.36,0,0,1,14.09,20.88,69.53,69.53,0,0,1,5.06,26.92,68.28,68.28,0,0,1-5.14,26.65,62.92,62.92,0,0,1-14.19,21A65,65,0,0,1,3082.6,850,73.77,73.77,0,0,1,3055.18,854.93Zm.1-30.75a39.25,39.25,0,0,0,14.39-2.56,31.27,31.27,0,0,0,11.18-7.3,33.45,33.45,0,0,0,7.2-11.28,39.94,39.94,0,0,0,2.58-14.55,41.92,41.92,0,0,0-2.5-14.93,31.4,31.4,0,0,0-7.18-11.28,32.1,32.1,0,0,0-11.2-7.2,40.05,40.05,0,0,0-14.47-2.47,38.31,38.31,0,0,0-14.3,2.57,31.86,31.86,0,0,0-18.48,18.64,43.33,43.33,0,0,0,0,29.4,32.85,32.85,0,0,0,7.2,11.28,30.68,30.68,0,0,0,11.1,7.2A40.07,40.07,0,0,0,3055.28,824.18Z"/><path class="cls-1" d="M3155,724.17h27.54L3242,798.6V724.17h32V853h-27.54l-59.5-73.9V853h-32Z"/><path class="cls-1" d="M3412.62,754.37h-40.68V853h-32.52v-98.6h-40.5v-30.2h113.7Z"/><path class="cls-1" d="M3499.54,854.93a74.79,74.79,0,0,1-27.4-4.9,64.51,64.51,0,0,1-21.65-13.68,62.08,62.08,0,0,1-14.27-21.05,68.59,68.59,0,0,1-5.16-26.81,67,67,0,0,1,5.16-26.49,63.67,63.67,0,0,1,14.27-21,65.52,65.52,0,0,1,21.73-13.86,73.92,73.92,0,0,1,27.32-5,75.75,75.75,0,0,1,27.52,4.9,64.56,64.56,0,0,1,21.61,13.58,60.73,60.73,0,0,1,14.12,20.88,69.53,69.53,0,0,1,5.07,26.92,68.65,68.65,0,0,1-5.15,26.65,63.09,63.09,0,0,1-14.2,21A64.53,64.53,0,0,1,3526.94,850,73.59,73.59,0,0,1,3499.54,854.93Zm.1-30.75a39.07,39.07,0,0,0,14.37-2.56,31.22,31.22,0,0,0,11.21-7.3,33,33,0,0,0,7.19-11.28,39.74,39.74,0,0,0,2.58-14.55,41.7,41.7,0,0,0-2.5-14.93,31.4,31.4,0,0,0-7.18-11.28,32.1,32.1,0,0,0-11.2-7.2,40.05,40.05,0,0,0-14.47-2.47,38.29,38.29,0,0,0-14.29,2.57,32.53,32.53,0,0,0-11.21,7.28,32.08,32.08,0,0,0-7.27,11.36,43.17,43.17,0,0,0,0,29.4,32.68,32.68,0,0,0,7.19,11.28,30.72,30.72,0,0,0,11.11,7.2A40.05,40.05,0,0,0,3499.64,824.18Z"/><path class="cls-1" d="M3702.24,724.17a69.23,69.23,0,0,1,21.71,3.2,45.9,45.9,0,0,1,16.42,9.24,40.42,40.42,0,0,1,10.37,14.75,50.3,50.3,0,0,1,3.63,19.52,49.27,49.27,0,0,1-3.71,19.55,42,42,0,0,1-10.47,14.83,45.74,45.74,0,0,1-16.38,9.42A66.93,66.93,0,0,1,3702.1,818h-16.47v35h-32.52V724.17Zm.08,63.43q9.07,0,14.12-4.36c3.39-2.9,5.07-7,5.07-12.36s-1.66-9.43-5-12.33-8-4.36-14-4.36h-16.87V787.6Z"/><path class="cls-1" d="M3831.23,814.42h-15.44V853h-32.52V724.17h50.38a71.11,71.11,0,0,1,21.89,3.12,47,47,0,0,1,16.5,9,38.27,38.27,0,0,1,10.36,14.13,47.09,47.09,0,0,1,3.55,18.74q0,13.5-6.36,23.45a43.58,43.58,0,0,1-17.84,15.63L3889,853h-37.65Zm-15.44-30.37h18.3c6,0,10.7-1.29,14-3.83s5-6.24,5-11.1-1.64-8.7-4.9-11.2-7.91-3.73-13.93-3.73h-18.48Z"/><path class="cls-1" d="M4010.16,824v29H3919V724.17h90.43v29h-57.91v21.69h54.36v26.65h-54.36V824Z"/><path class="cls-1" d="M4084.91,854.93a54.53,54.53,0,0,1-13.42-1.53,50.29,50.29,0,0,1-10.75-4,39.77,39.77,0,0,1-8.35-5.73,43.06,43.06,0,0,1-6-6.61,48.37,48.37,0,0,1-8.71-17.64l28.77-8.37a23.21,23.21,0,0,0,3.19,8.19,18.17,18.17,0,0,0,5.44,5.77c2.3,1.59,5.41,2.4,9.31,2.4,4.39,0,7.87-1,10.49-3a10,10,0,0,0,3.91-8.35,10.7,10.7,0,0,0-3.65-8.61c-2.42-2.06-6.19-3.8-11.28-5.21l-12.61-3.91q-15.64-4.6-23.71-14.09t-8.09-23.34a39.87,39.87,0,0,1,3.11-16,34.35,34.35,0,0,1,8.8-12.23,38.33,38.33,0,0,1,13.84-7.71,63.87,63.87,0,0,1,31.37-1.33,53.19,53.19,0,0,1,10.39,3.45,35.73,35.73,0,0,1,8,5,52.31,52.31,0,0,1,5.86,5.69,42.15,42.15,0,0,1,8.53,15.44l-28.79,10.13a21,21,0,0,0-2.83-6.92,18.31,18.31,0,0,0-5.06-4.89c-2.08-1.35-5-2.05-8.62-2.05a14.32,14.32,0,0,0-9.14,2.76,9.11,9.11,0,0,0-3.47,7.55,10.12,10.12,0,0,0,3.9,8.17c2.6,2.14,6.7,4,12.26,5.69l13.68,4.44q15.1,4.62,23,13.94t7.89,23a39.5,39.5,0,0,1-3.37,16.59,35.24,35.24,0,0,1-9.49,12.53,43.93,43.93,0,0,1-14.83,8A62.43,62.43,0,0,1,4084.91,854.93Z"/><path class="cls-1" d="M4203.67,854.93a54.53,54.53,0,0,1-13.42-1.53,50.29,50.29,0,0,1-10.75-4,39.77,39.77,0,0,1-8.35-5.73,43.06,43.06,0,0,1-6-6.61,48.37,48.37,0,0,1-8.71-17.64l28.77-8.37a23,23,0,0,0,3.19,8.19,18.14,18.14,0,0,0,5.43,5.77c2.3,1.59,5.42,2.4,9.32,2.4q6.57,0,10.49-3a10,10,0,0,0,3.91-8.35,10.7,10.7,0,0,0-3.65-8.61c-2.42-2.06-6.19-3.8-11.28-5.21L4190,798.3q-15.64-4.6-23.71-14.09t-8.09-23.34a39.87,39.87,0,0,1,3.11-16,34.35,34.35,0,0,1,8.8-12.23,38.33,38.33,0,0,1,13.84-7.71,63.87,63.87,0,0,1,31.37-1.33,52.87,52.87,0,0,1,10.38,3.45,35.51,35.51,0,0,1,8,5,52.44,52.44,0,0,1,5.87,5.69,42.3,42.3,0,0,1,8.53,15.44l-28.79,10.13a21.22,21.22,0,0,0-2.83-6.92,18.31,18.31,0,0,0-5.06-4.89c-2.08-1.35-5-2.05-8.62-2.05a14.32,14.32,0,0,0-9.14,2.76,9.11,9.11,0,0,0-3.47,7.55,10.09,10.09,0,0,0,3.9,8.17c2.6,2.14,6.7,4,12.25,5.69L4220,778q15.12,4.62,23,13.94t7.89,23a39.5,39.5,0,0,1-3.37,16.59,35.24,35.24,0,0,1-9.49,12.53,43.93,43.93,0,0,1-14.83,8A62.47,62.47,0,0,1,4203.67,854.93Z"/></svg>