<svg xmlns="http://www.w3.org/2000/svg" width="37" height="37" viewBox="0 0 37 37"><path fill="#FFF" d="M22.3 20.5l-2-2-.1-.1.1-.1 2-2c.5-.5.6-1.4.1-1.8-.5-.5-1.3-.4-1.8.1l-2 2-.1.1-.1-.1-2-2c-.5-.5-1.4-.6-1.8-.1-.5.5-.4 1.3.1 1.8l2 2 .1.1-.1.1-2 2c-.5.5-.6 1.4-.1 1.8.5.5 1.3.4 1.8-.1l2-2 .1-.1.1.1 2 2c.5.5 1.4.6 1.8.1.5-.4.4-1.2-.1-1.8z"/><path fill="#FFF" d="M18.5 36C8.9 36 1 28.1 1 18.5S8.9 1 18.5 1 36 8.9 36 18.5 28.1 36 18.5 36zm0-34C9.4 2 2 9.4 2 18.5S9.4 35 18.5 35 35 27.6 35 18.5 27.6 2 18.5 2z"/></svg>