<svg width="168" height="39" viewBox="0 0 168 39" version="1.1" xmlns="http://www.w3.org/2000/svg" xmlns:xlink="http://www.w3.org/1999/xlink">
<title>FASEB JournallogoBlue</title>
<desc>Created using Figma</desc>
<g id="Canvas" transform="translate(-1740 1070)">
<rect x="1740" y="-1070" width="168" height="39" fill="#E6FFF1"/>
<clipPath id="clip-0" clip-rule="evenodd">
<path d="M 1724 -1088L 3164 -1088L 3164 1414L 1724 1414L 1724 -1088Z" fill="#FFFFFF"/>
</clipPath>
<g id="Landing Page" clip-path="url(#clip-0)">
<path d="M 1724 -1088L 3164 -1088L 3164 1414L 1724 1414L 1724 -1088Z" fill="#FFFFFF"/>
<g id="Header Desktop">
<g id="Vector">
<use xlink:href="#path0_fill" transform="translate(1724 -1088)" fill="#FFFFFF"/>
</g>
<g id="FASEB JournallogoBlue">
<g id="Group">
<g id="Vector">
<use xlink:href="#path1_fill" transform="translate(1740 -1062.11)" fill="#005DA4"/>
</g>
<g id="Vector">
<use xlink:href="#path2_fill" transform="translate(1750.86 -1062.11)" fill="#005DA4"/>
</g>
<g id="Vector">
<use xlink:href="#path3_fill" transform="translate(1779.02 -1062.4)" fill="#005DA4"/>
</g>
<g id="Vector">
<use xlink:href="#path4_fill" transform="translate(1799.78 -1062.11)" fill="#005DA4"/>
</g>
<g id="Vector">
<use xlink:href="#path5_fill" transform="translate(1820.8 -1062.11)" fill="#005DA4"/>
</g>
</g>
<g id="Group">
<g id="Vector">
<use xlink:href="#path6_fill" transform="translate(1843.85 -1042.35)" fill="#005DA4"/>
</g>
<g id="Vector">
<use xlink:href="#path7_fill" transform="translate(1849.78 -1042.56)" fill="#005DA4"/>
</g>
<g id="Vector">
<use xlink:href="#path8_fill" transform="translate(1861.5 -1042.35)" fill="#005DA4"/>
</g>
<g id="Vector">
<use xlink:href="#path9_fill" transform="translate(1872.44 -1042.35)" fill="#005DA4"/>
</g>
<g id="Vector">
<use xlink:href="#path10_fill" transform="translate(1881.57 -1042.35)" fill="#005DA4"/>
</g>
<g id="Vector">
<use xlink:href="#path11_fill" transform="translate(1890.65 -1042.35)" fill="#005DA4"/>
</g>
<g id="Vector">
<use xlink:href="#path12_fill" transform="translate(1902.55 -1042.35)" fill="#005DA4"/>
</g>
</g>
<g id="Group">
<g id="Vector">
<use xlink:href="#path13_fill" transform="translate(1740 -1070)" fill="#005DA4"/>
</g>
<g id="Vector">
<use xlink:href="#path14_fill" transform="translate(1744.97 -1069.96)" fill="#005DA4"/>
</g>
<g id="Vector">
<use xlink:href="#path15_fill" transform="translate(1750.6 -1069.96)" fill="#005DA4"/>
</g>
</g>
</g>
</g>
</g>
<g id="Borders">
</g>
</g>
<defs>
<path id="path0_fill" d="M 1440 0L 0 0L 0 75L 1440 75L 1440 0Z"/>
<path id="path1_fill" d="M 16.9557 12.4595L 5.36353 12.4595L 5.36353 4.69366L 20.7621 4.69366L 23.0545 -6.51087e-07L 6.60008e-07 -6.51087e-07L 6.60008e-07 30.5941L 5.36353 30.5941L 5.36353 17.1105L 14.7065 17.1105L 16.9557 12.4595Z"/>
<path id="path2_fill" d="M 14.9227 -6.51086e-07L 0 30.6368L 5.53655 30.6368L 8.08855 25.1751L 22.1895 25.1751L 24.6982 30.6368L 30.451 30.6368L 16.0041 -6.51086e-07L 14.9227 -6.51086e-07ZM 10.0783 20.7801L 15.1823 9.38731L 20.243 20.7801L 10.0783 20.7801Z"/>
<path id="path3_fill" d="M 11.4624 13.2276L 9.34293 11.9902C 6.79092 10.4967 5.36353 9.38731 5.36353 7.63786C 5.36353 5.71773 6.96394 4.48031 9.5592 4.48031C 11.3326 4.48031 13.7549 5.29103 16.5664 6.78447L 16.8692 6.95514L 16.8692 1.83479L 16.7394 1.79212C 14.2307 0.554704 11.8084 6.51086e-07 9.21316 6.51086e-07C 3.80638 6.51086e-07 -6.60008e-07 3.24289 -6.60008e-07 7.93655C -6.60008e-07 11.8621 2.552 14.1663 6.35838 16.3851L 8.56435 17.7079C 11.7219 19.5427 12.8033 20.9081 12.8033 22.8709C 12.8033 25.1751 10.7703 26.7112 7.78578 26.7538L 7.52625 26.7538C 5.96909 26.7538 4.19567 26.5832 1.90319 25.2604L 1.34088 24.9617L 3.93614 30.8501L 4.02265 30.8928C 4.93099 31.1915 6.5314 31.4048 8.00205 31.4048C 14.3172 31.4048 18.4263 28.0339 18.4263 22.7856C 18.4263 18.2199 15.6148 15.6597 11.4624 13.2276Z"/>
<path id="path4_fill" d="M 5.27703 16.8972L 16.2636 16.8972L 16.2636 12.2462L 5.27703 12.2462L 5.27703 4.69366L 18.037 4.69366L 18.037 -6.51087e-07L 2.64003e-06 -6.51087e-07L 2.64003e-06 30.5941L 18.2533 30.5941L 18.2533 25.8578L 5.27703 25.8578L 5.27703 16.8972Z"/>
<path id="path5_fill" d="M 14.6632 14.2516C 17.9938 13.0569 19.5942 10.8381 19.5942 7.76587C 19.5942 2.68819 16.1339 -6.51087e-07 9.25642 -6.51087e-07L -1.32002e-06 -6.51087e-07L -1.32002e-06 30.5941L 8.39134 30.5941C 16.3069 30.5941 20.243 27.6499 20.243 21.6335C 20.243 17.8359 18.2101 15.1477 14.6632 14.2516ZM 5.23377 4.05361L 8.21832 4.05361C 12.241 4.05361 14.2307 5.24836 14.2307 8.14989C 14.2307 10.9234 12.1112 12.6729 8.43459 12.6729L 5.23377 12.6729L 5.23377 4.05361ZM 9.0834 26.3271L 5.23377 26.3271L 5.23377 16.7692L 9.04015 16.7692C 12.8465 16.7692 14.8795 18.4759 14.8795 21.4201C 14.8795 24.535 12.76 26.3271 9.0834 26.3271Z"/>
<path id="path6_fill" d="M 3.67662 7.93655C 3.67662 9.60066 2.94129 10.8807 1.12461 10.8807C 0.77858 10.8807 0.346034 10.8381 0 10.7101L 0 9.77134C 0.259526 9.89935 0.692063 9.98469 0.994844 9.98469C 2.20596 9.98469 2.59526 9.04596 2.59526 7.97922L 2.59526 6.51086e-07L 3.67662 6.51086e-07L 3.67662 7.93655Z"/>
<path id="path7_fill" d="M 4.80122 6.51087e-07C 8.08855 6.51087e-07 9.60245 2.64552 9.60245 5.54705C 9.5592 8.83261 7.95879 11.0941 4.80122 11.0941C 1.68691 11.0941 0.0432596 8.83261 5.28007e-06 5.54705C 5.28007e-06 2.64552 1.55715 6.51087e-07 4.80122 6.51087e-07ZM 1.12461 5.54705C 1.12461 7.80854 2.29248 10.1554 4.84448 10.1554C 7.39648 10.1554 8.56435 7.80854 8.56435 5.54705C 8.56435 3.28556 7.39648 0.938731 4.84448 0.938731C 2.24922 0.938731 1.12461 3.28556 1.12461 5.54705Z"/>
<path id="path8_fill" d="M 7.87228 6.95514C 7.87228 10.1127 5.53655 10.8807 3.93614 10.8807C 2.33573 10.8807 -5.28007e-06 10.1127 -5.28007e-06 6.95514L -5.28007e-06 6.51086e-07L 1.08135 6.51086e-07L 1.08135 6.95514C 1.08135 8.7046 2.0762 9.98469 3.93614 9.98469C 5.79607 9.98469 6.79092 8.7046 6.79092 6.95514L 6.79092 6.51086e-07L 7.87228 6.51086e-07L 7.87228 6.95514Z"/>
<path id="path9_fill" d="M 2.64003e-06 6.51087e-07L 2.81153 6.51087e-07C 4.75798 6.51087e-07 6.01235 0.810723 6.01235 2.77352C 6.01235 4.13895 4.93099 5.07768 3.5901 5.24836L 3.5901 5.29103C 4.45519 5.41904 4.62821 5.84574 4.97425 6.57112L 6.83418 10.7101L 5.66632 10.7101L 4.10916 7.08315C 3.5036 5.71773 3.02781 5.67506 1.9897 5.67506L 1.08136 5.67506L 1.08136 10.7101L 2.64003e-06 10.7101L 2.64003e-06 6.51087e-07ZM 1.08136 4.73633L 2.20597 4.73633C 3.46035 4.73633 4.93099 4.26696 4.93099 2.77352C 4.93099 1.02407 3.67662 0.896062 2.20597 0.896062L 1.08136 0.896062L 1.08136 4.73633Z"/>
<path id="path10_fill" d="M 5.28007e-06 6.51087e-07L 1.34088 6.51087e-07L 6.87744 9.42998L 6.92069 9.42998L 6.92069 6.51087e-07L 8.00205 6.51087e-07L 8.00205 10.7101L 6.57465 10.7101L 1.12461 1.45077L 1.08136 1.45077L 1.08136 10.7101L 5.28007e-06 10.7101L 5.28007e-06 6.51087e-07Z"/>
<path id="path11_fill" d="M 4.45519 6.51087e-07L 5.66631 6.51087e-07L 9.99174 10.7101L 8.86714 10.7101L 7.69926 7.85121L 2.20596 7.85121L 1.03811 10.7101L 5.28007e-06 10.7101L 4.45519 6.51087e-07ZM 4.97425 0.9814L 2.59526 6.91248L 7.30998 6.91248L 4.97425 0.9814Z"/>
<path id="path12_fill" d="M 5.28007e-06 6.51086e-07L 1.08136 6.51086e-07L 1.08136 9.81401L 5.45004 9.81401L 5.45004 10.7527L 5.28007e-06 10.7527L 5.28007e-06 6.51086e-07Z"/>
<path id="path13_fill" d="M 1.68692 0.682714L 6.60008e-07 0.682714L 6.60008e-07 -6.51086e-07L 4.15241 -6.51086e-07L 4.15241 0.682714L 2.46549 0.682714L 2.46549 5.37637L 1.68692 5.37637L 1.68692 0.682714Z"/>
<path id="path14_fill" d="M 6.60008e-07 3.25543e-07L 0.778578 3.25543e-07L 0.778578 2.26149L 3.37384 2.26149L 3.37384 3.25543e-07L 4.15241 3.25543e-07L 4.15241 5.37637L 3.37384 5.37637L 3.37384 2.90153L 0.778578 2.90153L 0.778578 5.3337L 6.60008e-07 5.3337L 6.60008e-07 3.25543e-07Z"/>
<path id="path15_fill" d="M 6.60008e-07 3.25543e-07L 3.0278 3.25543e-07L 3.0278 0.682713L 0.778578 0.682713L 0.778578 2.26149L 2.85478 2.26149L 2.85478 2.90153L 0.778578 2.90153L 0.778578 4.65099L 3.07105 4.65099L 3.07105 5.3337L 0.0432543 5.3337L 0.0432543 3.25543e-07L 6.60008e-07 3.25543e-07Z"/>
</defs>
</svg>
