<svg xmlns="http://www.w3.org/2000/svg" width="242.758" height="56.167" viewBox="0 -6 242.758 56.167"><path d="M2.92-4.826h5.799v23.958H2.92zm38.472 19.53v4.161c-1.375.402-2.447.538-3.789.538-4.022 0-5.834-1.613-5.834-5.203V5.877h-2.28V1.952h2.28V-2.31H37.3v4.262h3.722v3.926h-3.756v7.182c0 1.344.537 1.881 2.013 1.881.804-.003 1.409-.069 2.113-.237m6.449-5.906h6.739c0-1.979-1.24-3.321-3.22-3.321-1.876 0-3.115 1.139-3.519 3.321M59.71 13.53c-.771 3.727-3.854 6.008-8.281 6.008-2.683 0-4.861-.839-6.539-2.484-1.709-1.643-2.548-3.791-2.548-6.511s.84-4.902 2.516-6.543c1.677-1.646 3.855-2.451 6.503-2.451 2.584 0 4.627.807 6.137 2.416 1.509 1.611 2.279 3.727 2.279 6.312v1.507H47.741c.301 2.515 1.576 3.792 3.688 3.792 1.575 0 2.682-.703 3.117-2.047h5.164v.001zm-4.391 25.196h6.744c0-1.98-1.241-3.322-3.222-3.322-1.878-.004-3.118 1.137-3.522 3.322m11.88 4.729c-.772 3.729-3.859 6.008-8.289 6.008-2.686 0-4.866-.84-6.545-2.482-1.71-1.645-2.552-3.791-2.552-6.514 0-2.717.842-4.896 2.518-6.541 1.68-1.646 3.859-2.447 6.511-2.447 2.585 0 4.63.803 6.144 2.414 1.509 1.607 2.279 3.725 2.279 6.309v1.508H55.217c.302 2.52 1.579 3.793 3.693 3.793 1.577 0 2.684-.703 3.12-2.045l5.169-.003zm44.515-4.729h6.745c0-1.98-1.242-3.322-3.222-3.322-1.879-.004-3.12 1.137-3.523 3.322m11.88 4.729c-.77 3.729-3.858 6.008-8.29 6.008-2.684 0-4.866-.84-6.545-2.482-1.71-1.645-2.55-3.791-2.55-6.514 0-2.717.84-4.896 2.518-6.541 1.678-1.646 3.859-2.447 6.511-2.447 2.585 0 4.63.803 6.142 2.414 1.512 1.607 2.282 3.725 2.282 6.309v1.508h-12.049c.302 2.52 1.579 3.793 3.691 3.793 1.578 0 2.686-.703 3.121-2.045l5.169-.003zM73.933 1.852V7.02c-.537-.102-1.106-.135-1.81-.135-2.783 0-4.493 1.745-4.493 4.733v7.516h-5.601V1.952h5.534v3.656c.836-2.551 2.715-3.925 5.128-3.925.57.001.973.032 1.242.169m27.487 14.092c2.044 0 3.519-1.307 3.519-3.32v-.841l-3.083.369c-1.877.236-2.581.771-2.581 1.947-.001 1.173.803 1.845 2.145 1.845m3.956 3.19c-.136-1.208-.168-1.846-.168-2.518-.838 1.881-2.816 2.922-5.499 2.922-3.653 0-5.968-1.979-5.968-5.068 0-3.087 2.079-4.833 6.371-5.271l4.826-.467v-.708c0-1.575-.938-2.481-2.581-2.481-1.475 0-2.414.836-2.515 2.18h-5.364c.369-3.893 3.388-6.174 8.081-6.174 5.196 0 7.845 2.416 7.845 7.116v5.566c0 2.051.067 3.426.303 4.901l-5.331.002zm18.079-4.43v4.161c-1.375.402-2.448.538-3.79.538-4.023 0-5.834-1.613-5.834-5.203V5.877h-2.28V1.952h2.28V-2.31h5.531v4.262h3.723v3.926h-3.756v7.182c0 1.344.537 1.881 2.013 1.881.804-.003 1.408-.069 2.113-.237m7.922 4.43h-5.6V1.952h5.6v17.182zm.1-19.566h-5.801v-4.866h5.801v4.866zm7.855 10.974c0 3.188 1.24 4.966 3.521 4.966 2.242 0 3.484-1.742 3.484-4.966 0-3.22-1.242-4.968-3.484-4.968-2.281.001-3.521 1.78-3.521 4.968M149.49 4c1.643 1.641 2.479 3.822 2.479 6.542s-.838 4.899-2.479 6.544c-1.676 1.647-3.889 2.449-6.639 2.449-2.783 0-4.994-.804-6.641-2.449-1.676-1.645-2.516-3.824-2.516-6.544s.84-4.901 2.516-6.542c1.646-1.646 3.855-2.451 6.641-2.451 2.751 0 4.963.805 6.639 2.451m30.494 11.944c2.043 0 3.518-1.307 3.518-3.32v-.841l-3.084.369c-1.877.236-2.582.771-2.582 1.947 0 1.173.807 1.845 2.148 1.845m3.957 3.19c-.137-1.208-.168-1.846-.168-2.518-.838 1.881-2.818 2.922-5.5 2.922-3.652 0-5.969-1.979-5.969-5.068 0-3.087 2.078-4.833 6.369-5.271l4.828-.467v-.708c0-1.575-.938-2.481-2.582-2.481-1.475 0-2.414.836-2.516 2.18h-5.363c.369-3.893 3.387-6.174 8.08-6.174 5.195 0 7.846 2.416 7.846 7.116v5.566c0 2.051.066 3.426.305 4.901l-5.33.002zm7.85-24.432h5.832v24.432h-5.832zM25.067 46.978c-1.701-1.643-2.553-3.789-2.553-6.512 0-2.717.852-4.898 2.553-6.541 1.669-1.645 3.917-2.449 6.675-2.449 4.528 0 7.594 2.518 8.104 6.645h-5.38c-.237-1.609-1.26-2.584-2.793-2.584-2.179 0-3.438 1.846-3.438 4.934s1.26 4.898 3.438 4.898c1.533 0 2.556-.973 2.793-2.582h5.38c-.51 4.127-3.575 6.678-8.104 6.678-2.758-.003-5.006-.842-6.675-2.487m65.304 0c-1.655-1.643-2.486-3.789-2.486-6.512 0-2.717.831-4.898 2.486-6.541 1.625-1.645 3.812-2.449 6.498-2.449 4.408 0 7.393 2.518 7.889 6.645H99.52c-.229-1.609-1.225-2.584-2.716-2.584-2.122 0-3.349 1.846-3.349 4.934s1.227 4.898 3.349 4.898c1.491 0 2.486-.973 2.716-2.582h5.238c-.496 4.127-3.48 6.678-7.889 6.678-2.685-.003-4.873-.842-6.498-2.487m68.656-6.512c0 3.189 1.221 4.969 3.457 4.969 2.203 0 3.422-1.744 3.422-4.969 0-3.219-1.219-4.967-3.422-4.967-2.236.001-3.457 1.778-3.457 4.967m9.971-6.541c1.613 1.643 2.438 3.824 2.438 6.541 0 2.723-.824 4.9-2.438 6.547-1.645 1.645-3.814 2.449-6.514 2.449-2.732 0-4.904-.805-6.52-2.449-1.645-1.646-2.469-3.824-2.469-6.547 0-2.717.824-4.898 2.469-6.541 1.613-1.646 3.785-2.449 6.52-2.449 2.7 0 4.871.803 6.514 2.449m43.469 13.053c-1.656-1.643-2.484-3.789-2.484-6.512 0-2.717.828-4.898 2.484-6.541 1.625-1.645 3.812-2.449 6.498-2.449 4.41 0 7.393 2.518 7.891 6.645h-5.238c-.229-1.609-1.225-2.584-2.717-2.584-2.121 0-3.35 1.846-3.35 4.934s1.229 4.898 3.35 4.898c1.492 0 2.486-.973 2.717-2.582h5.238c-.498 4.127-3.479 6.678-7.891 6.678-2.686-.003-4.873-.842-6.498-2.487m22.008 2.082h-5.539V31.875h5.539V49.06zm.095-19.568h-5.732v-4.865h5.732v4.865zM47.531 49.06h-5.535V31.875h5.535V49.06zm.099-19.568h-5.734v-4.865h5.734v4.865zm189.593-4.866h5.535V49.06h-5.535zM11.728 2.018h5.533v2.65c.904-1.877 2.191-3.051 4.605-3.051 3.988 0 6.139 2.447 6.139 6.575V19.2h-5.633V9.536c0-2.227-.479-3.594-2.389-3.594-1.979 0-2.656 1.637-2.656 4.063V19.2h-5.6l.001-17.182zM0 41.675h5.604c.234 2.316 2.148 3.625 5.27 3.625 2.584 0 4.33-1.141 4.33-2.922 0-1.508-.942-2.213-3.593-2.646l-4.23-.772C2.95 38.153.735 35.905.735 32.181c0-2.215.908-4.025 2.687-5.402 1.779-1.377 4.094-2.08 6.88-2.08 6.041 0 9.665 2.65 10.168 7.348H15c-.168-2.012-1.912-3.188-4.631-3.188-2.385 0-3.96 1.143-3.96 2.887 0 1.375.638 2.014 3.457 2.551l4.562.873c4.332.771 6.479 3.021 6.479 6.812 0 2.25-.906 4.025-2.753 5.402-1.845 1.375-4.195 2.08-7.081 2.08C4.528 49.46.503 46.644 0 41.675m135.965-4.595c0 5.064 2.115 7.92 5.84 7.92 2.65 0 4.264-1.377 4.768-3.961h5.639c-1.041 5.402-4.73 8.424-10.404 8.424-3.521 0-6.377-1.143-8.523-3.422-2.148-2.25-3.221-5.234-3.221-8.961 0-3.691 1.07-6.682 3.221-8.961 2.146-2.283 5.002-3.426 8.523-3.426 5.738 0 9.363 3.021 10.404 8.426h-5.639c-.504-2.584-2.115-3.961-4.768-3.961-3.725 0-5.84 2.851-5.84 7.922m66.033-5.604c-2.387 0-3.656 1.174-4.551 3.051v-2.65h-5.471V49.06h5.535v-9.809c0-2.229.904-3.447 2.543-3.447s2.439 1.078 2.439 3.205V49.06h5.568V38.052c.005-4.127-2.118-6.576-6.063-6.576m-122.263 0c-2.386 0-3.655 1.174-4.551 3.051v-2.65h-5.47V49.06h5.537v-9.809c0-2.229.905-3.447 2.543-3.447 1.637 0 2.439 1.078 2.439 3.205V49.06h5.569V38.052c.002-4.127-2.12-6.576-6.067-6.576M85.84 1.549c-2.385 0-3.654 1.176-4.547 3.053v-2.65h-5.466v17.182h5.532V9.327c0-2.231.904-3.45 2.54-3.45 1.637 0 2.438 1.082 2.438 3.208v10.049h5.562V8.128c0-4.128-2.12-6.579-6.059-6.579m78.396 0c-2.387 0-3.654 1.176-4.545 3.053v-2.65h-5.471v17.182h5.533V9.327c0-2.231.902-3.45 2.541-3.45s2.438 1.082 2.438 3.208v10.049h5.562V8.128c.003-4.128-2.118-6.579-6.058-6.579m19.307 30.326v10.066c0 2.062-.838 3.191-2.354 3.191-1.514 0-2.256-1-2.256-2.967v-10.29h-5.562v11.01c0 4.158 2.041 6.578 5.855 6.578 2.271 0 3.594-1.174 4.418-3.055v2.65h5.461V31.875h-5.562z"/></svg>