<svg xmlns="http://www.w3.org/2000/svg" width="386" height="107" viewBox="0 0 386 107"><path d="M139.489 27.014h5.799v23.959h-5.799zm38.471 19.53v4.161c-1.375.402-2.447.539-3.789.539-4.022 0-5.834-1.613-5.834-5.203v-8.324h-2.28v-3.926h2.28V29.53h5.532v4.261h3.722v3.926h-3.756V44.9c0 1.343.537 1.88 2.013 1.88.803-.001 1.408-.067 2.112-.236m6.45-5.906h6.739c0-1.978-1.24-3.321-3.22-3.321-1.875-.001-3.116 1.138-3.519 3.321m11.869 4.732c-.771 3.727-3.854 6.008-8.281 6.008-2.683 0-4.861-.84-6.539-2.485-1.709-1.642-2.548-3.79-2.548-6.511 0-2.718.839-4.9 2.516-6.542 1.677-1.645 3.855-2.45 6.503-2.45 2.584 0 4.627.806 6.136 2.415 1.51 1.611 2.279 3.727 2.279 6.311v1.508H184.31c.301 2.517 1.576 3.793 3.688 3.793 1.575 0 2.682-.703 3.117-2.046l5.164-.001zm-4.39 25.192h6.744c0-1.979-1.24-3.321-3.222-3.321-1.879 0-3.12 1.139-3.522 3.321m11.881 4.732c-.772 3.728-3.859 6.008-8.289 6.008-2.687 0-4.867-.84-6.545-2.483-1.71-1.644-2.552-3.791-2.552-6.512 0-2.718.842-4.898 2.518-6.541 1.68-1.646 3.859-2.449 6.511-2.449 2.585 0 4.63.804 6.145 2.414 1.508 1.609 2.278 3.726 2.278 6.31v1.508h-12.048c.302 2.519 1.579 3.793 3.693 3.793 1.576 0 2.684-.702 3.119-2.046l5.17-.002zm44.513-4.732h6.744c0-1.979-1.241-3.321-3.221-3.321-1.878 0-3.118 1.139-3.523 3.321m11.88 4.732c-.771 3.728-3.858 6.008-8.29 6.008-2.684 0-4.866-.84-6.545-2.483-1.71-1.644-2.551-3.791-2.551-6.512 0-2.718.841-4.898 2.519-6.541 1.679-1.646 3.858-2.449 6.511-2.449 2.586 0 4.631.804 6.143 2.414 1.511 1.609 2.281 3.726 2.281 6.31v1.508h-12.049c.303 2.519 1.579 3.793 3.691 3.793 1.578 0 2.686-.702 3.121-2.046l5.169-.002zm-49.662-41.603v5.168c-.537-.102-1.106-.134-1.81-.134-2.783 0-4.493 1.744-4.493 4.731v7.517h-5.601V33.791h5.533v3.658c.836-2.551 2.715-3.926 5.128-3.926.572 0 .974.033 1.243.168m27.487 14.094c2.045 0 3.52-1.308 3.52-3.322v-.84l-3.083.369c-1.877.235-2.581.772-2.581 1.947 0 1.174.802 1.846 2.144 1.846m3.957 3.189c-.137-1.207-.168-1.846-.168-2.517-.838 1.88-2.816 2.921-5.5 2.921-3.652 0-5.967-1.979-5.967-5.069 0-3.087 2.078-4.833 6.371-5.27l4.825-.467v-.707c0-1.576-.938-2.481-2.581-2.481-1.475 0-2.414.836-2.515 2.179h-5.364c.369-3.892 3.389-6.173 8.081-6.173 5.196 0 7.845 2.415 7.845 7.115v5.567c0 2.051.067 3.425.303 4.901l-5.33.001zm18.078-4.43v4.161c-1.375.402-2.447.539-3.789.539-4.023 0-5.834-1.613-5.834-5.203v-8.324h-2.28v-3.926h2.28V29.53h5.531v4.261h3.723v3.926h-3.756V44.9c0 1.343.537 1.88 2.013 1.88a8.492 8.492 0 0 0 2.112-.236m7.922 4.43h-5.6V33.791h5.6v17.183zm.1-19.566h-5.8v-4.866h5.8v4.866zm7.855 10.975c0 3.188 1.24 4.967 3.521 4.967 2.245 0 3.487-1.744 3.487-4.967 0-3.221-1.242-4.968-3.487-4.968-2.278 0-3.521 1.779-3.521 4.968m10.159-6.543c1.644 1.642 2.48 3.824 2.48 6.543 0 2.72-.838 4.899-2.48 6.544-1.676 1.646-3.889 2.45-6.638 2.45-2.782 0-4.995-.805-6.64-2.45-1.676-1.645-2.516-3.824-2.516-6.544 0-2.719.84-4.901 2.516-6.543 1.645-1.645 3.855-2.451 6.64-2.451 2.749 0 4.962.806 6.638 2.451m30.494 11.945c2.043 0 3.52-1.308 3.52-3.322v-.84l-3.084.369c-1.878.235-2.582.772-2.582 1.947-.002 1.174.804 1.846 2.146 1.846m3.956 3.189c-.135-1.207-.168-1.846-.168-2.517-.838 1.88-2.817 2.921-5.499 2.921-3.652 0-5.968-1.979-5.968-5.069 0-3.087 2.078-4.833 6.369-5.27l4.828-.467v-.707c0-1.576-.938-2.481-2.582-2.481-1.475 0-2.414.836-2.516 2.179h-5.363c.37-3.892 3.388-6.173 8.081-6.173 5.195 0 7.846 2.415 7.846 7.115v5.567c0 2.051.065 3.425.302 4.901l-5.33.001zm7.851-24.432h5.831v24.432h-5.831zM161.637 78.816c-1.701-1.642-2.553-3.791-2.553-6.51 0-2.718.852-4.9 2.553-6.543 1.669-1.645 3.917-2.449 6.675-2.449 4.528 0 7.594 2.518 8.104 6.644h-5.38c-.237-1.608-1.26-2.583-2.793-2.583-2.179 0-3.438 1.846-3.438 4.932 0 3.09 1.26 4.9 3.438 4.9 1.533 0 2.556-.975 2.793-2.583h5.38c-.51 4.127-3.575 6.678-8.104 6.678-2.758 0-5.006-.84-6.675-2.486m65.302 0c-1.655-1.642-2.486-3.791-2.486-6.51 0-2.718.831-4.9 2.486-6.543 1.625-1.645 3.812-2.449 6.498-2.449 4.408 0 7.393 2.518 7.889 6.644h-5.238c-.229-1.608-1.225-2.583-2.716-2.583-2.122 0-3.349 1.846-3.349 4.932 0 3.09 1.227 4.9 3.349 4.9 1.491 0 2.485-.975 2.716-2.583h5.238c-.496 4.127-3.48 6.678-7.889 6.678-2.685 0-4.873-.84-6.498-2.486m68.659-6.509c0 3.188 1.219 4.967 3.455 4.967 2.204 0 3.422-1.743 3.422-4.967 0-3.22-1.218-4.967-3.422-4.967-2.237 0-3.455 1.778-3.455 4.967m9.969-6.541c1.611 1.642 2.436 3.824 2.436 6.541 0 2.721-.823 4.9-2.436 6.545-1.646 1.646-3.815 2.45-6.516 2.45-2.731 0-4.903-.805-6.517-2.45-1.645-1.645-2.469-3.824-2.469-6.545 0-2.717.824-4.899 2.469-6.541 1.613-1.646 3.785-2.451 6.517-2.451 2.701-.001 4.872.804 6.516 2.451m43.469 13.05c-1.657-1.642-2.486-3.791-2.486-6.51 0-2.718.829-4.9 2.486-6.543 1.625-1.645 3.812-2.449 6.498-2.449 4.409 0 7.392 2.518 7.889 6.644h-5.238c-.229-1.608-1.225-2.583-2.717-2.583-2.121 0-3.348 1.846-3.348 4.932 0 3.09 1.227 4.9 3.348 4.9 1.492 0 2.487-.975 2.717-2.583h5.238c-.497 4.127-3.479 6.678-7.889 6.678-2.686 0-4.873-.84-6.498-2.486m22.006 2.082h-5.538V63.715h5.538v17.183zm.098-19.566h-5.732v-4.866h5.732v4.866zM184.101 80.898h-5.535V63.715h5.535v17.183zm.098-19.566h-5.734v-4.866h5.734v4.866zm189.592-4.865h5.536v24.432h-5.536zm-225.495-22.61h5.533v2.65c.904-1.877 2.191-3.051 4.605-3.051 3.988 0 6.139 2.449 6.139 6.576V51.04h-5.633v-9.663c0-2.227-.479-3.594-2.389-3.594-1.979 0-2.656 1.635-2.656 4.062v9.195h-5.6l.001-17.183zm-11.728 39.659h5.604c.234 2.316 2.148 3.625 5.27 3.625 2.584 0 4.33-1.142 4.33-2.922 0-1.509-.942-2.214-3.593-2.648l-4.229-.771c-4.431-.806-6.646-3.055-6.646-6.779 0-2.213.908-4.025 2.687-5.401 1.779-1.377 4.094-2.082 6.88-2.082 6.041 0 9.665 2.651 10.168 7.349h-5.47c-.168-2.013-1.912-3.187-4.631-3.187-2.385 0-3.96 1.141-3.96 2.886 0 1.375.638 2.014 3.457 2.55l4.562.873c4.332.771 6.479 3.021 6.479 6.812 0 2.25-.906 4.026-2.753 5.404-1.845 1.375-4.195 2.079-7.081 2.079-6.544-.003-10.57-2.822-11.074-7.788m135.966-4.597c0 5.065 2.114 7.92 5.839 7.92 2.65 0 4.263-1.376 4.768-3.96h5.637c-1.041 5.402-4.73 8.423-10.403 8.423-3.522 0-6.376-1.142-8.524-3.422-2.147-2.25-3.221-5.235-3.221-8.961 0-3.692 1.072-6.68 3.221-8.961 2.148-2.283 5.002-3.424 8.524-3.424 5.739 0 9.362 3.021 10.403 8.424h-5.637c-.505-2.584-2.115-3.96-4.768-3.96-3.725 0-5.839 2.852-5.839 7.921m66.032-5.605c-2.387 0-3.656 1.174-4.552 3.051v-2.65h-5.47v17.184h5.536v-9.808c0-2.229.905-3.448 2.543-3.448s2.44 1.08 2.44 3.207v10.049h5.568V69.893c.004-4.127-2.119-6.579-6.065-6.579m-122.261 0c-2.386 0-3.654 1.174-4.551 3.051v-2.65h-5.47v17.184h5.536v-9.808c0-2.229.906-3.448 2.543-3.448 1.638 0 2.439 1.08 2.439 3.207v10.049h5.569V69.893c.002-4.127-2.121-6.579-6.066-6.579m6.104-29.924c-2.386 0-3.654 1.175-4.548 3.052v-2.65h-5.465v17.183h5.531v-9.808c0-2.23.904-3.449 2.54-3.449 1.638 0 2.438 1.081 2.438 3.207v10.05h5.562V39.968c.002-4.127-2.117-6.578-6.058-6.578m78.396 0c-2.386 0-3.652 1.175-4.545 3.052v-2.65h-5.468v17.183h5.532v-9.808c0-2.23.904-3.449 2.541-3.449s2.438 1.081 2.438 3.207v10.05h5.562V39.968c.001-4.127-2.12-6.578-6.06-6.578m19.307 30.325v10.067c0 2.062-.838 3.19-2.354 3.19-1.514 0-2.256-1-2.256-2.967v-10.29h-5.564v11.01c0 4.158 2.041 6.577 5.857 6.577 2.271 0 3.594-1.174 4.418-3.055v2.651h5.461V63.715h-5.562zM44.275 53.863c0 3.999 3.24 7.239 7.238 7.239s7.238-3.24 7.238-7.239c0-3.998-3.24-7.237-7.238-7.237s-7.238 3.239-7.238 7.237m4.405 17.451a7.238 7.238 0 1 0-14.476 0 7.238 7.238 0 0 0 14.476 0m20.144 0a7.237 7.237 0 0 0-7.238-7.238 7.237 7.237 0 1 0 0 14.475 7.236 7.236 0 0 0 7.238-7.237m-52.213-4.539a7.238 7.238 0 1 0 0 14.476 7.238 7.238 0 0 0 0-14.476m69.805 0a7.238 7.238 0 1 0 0 14.476 7.238 7.238 0 0 0 0-14.476m0-25.822a7.238 7.238 0 1 0-7.239-7.237 7.239 7.239 0 0 0 7.239 7.237m-17.592-4.539c0-3.998-3.24-7.237-7.238-7.237s-7.238 3.239-7.238 7.237 3.24 7.238 7.238 7.238 7.238-3.24 7.238-7.238m-34.621 0a7.239 7.239 0 1 0 14.477-.001 7.239 7.239 0 0 0-14.477.001m-17.592-9.937a7.24 7.24 0 1 0 .002 14.478 7.24 7.24 0 0 0-.002-14.478m34.903-5.674a7.238 7.238 0 0 0 7.238-7.238 7.238 7.238 0 1 0-14.476 0 7.237 7.237 0 0 0 7.238 7.238m0 66.123a7.238 7.238 0 1 0 0 14.476 7.238 7.238 0 0 0 0-14.476m20.147-40.301a7.239 7.239 0 1 0 0 14.478 7.239 7.239 0 0 0 0-14.478m0-34.899a7.239 7.239 0 1 0 0 14.478 7.239 7.239 0 0 0 0-14.478M31.362 61.102a7.238 7.238 0 1 0-.002-14.474 7.238 7.238 0 0 0 .002 14.474m0-34.899a7.238 7.238 0 0 0 7.237-7.238 7.238 7.238 0 1 0-14.476 0 7.239 7.239 0 0 0 7.239 7.238m40.299 55.322a7.238 7.238 0 1 0-.002 14.476 7.238 7.238 0 0 0 .002-14.476m-40.299 0a7.238 7.238 0 1 0-.002 14.476 7.238 7.238 0 0 0 .002-14.476M18.454 53.863a7.237 7.237 0 0 0-7.239-7.237 7.238 7.238 0 1 0 0 14.476 7.239 7.239 0 0 0 7.239-7.239m73.354-7.238a7.239 7.239 0 1 0 0 14.478 7.239 7.239 0 0 0 0-14.478"/></svg>