<svg id="Ebene_1" data-name="Ebene 1" xmlns="http://www.w3.org/2000/svg" xmlns:xlink="http://www.w3.org/1999/xlink" viewBox="0 0 179.09 102.22" style="width:223px; height:127.28px"><defs><style>.cls-1{fill:none;}.cls-2{fill:#fff;}.cls-3{clip-path:url(#clip-path);}</style><clipPath id="clip-path" transform="translate(-0.06 0)"><rect class="cls-1" x="0.06" width="179.09" height="102.22"/></clipPath></defs><title>rz_dg-degruyter_dgcom_header_w_</title><path class="cls-2" d="M79.08,23.93v0c0-3.29-2.53-5.81-6.21-5.81H68.31V29.78h4.56a5.85,5.85,0,0,0,6.21-5.85M76.4,24a3.33,3.33,0,0,1-3.53,3.49h-2v-7h2a3.36,3.36,0,0,1,3.53,3.52Zm13.53,5.81V27.49H83.59V25H89.1V22.75H83.59V20.38h6.26V18.09H81V29.78Zm18.25-1.66V23.05h-5.07v2.22h2.59v1.67a4.09,4.09,0,0,1-2.42.7,3.5,3.5,0,0,1-3.54-3.71v0a3.51,3.51,0,0,1,3.36-3.64,4.3,4.3,0,0,1,3.05,1.19l1.62-1.95a6.4,6.4,0,0,0-4.59-1.61,6,6,0,0,0-6.13,6v0a5.85,5.85,0,0,0,6.15,6A7.49,7.49,0,0,0,108.18,28.12Zm12.56,1.66-2.85-4.17a3.65,3.65,0,0,0,2.5-3.63v0c0-2.4-1.65-3.86-4.4-3.86h-5.34V29.78h2.57V26h2l2.51,3.74Zm-2.95-7.66c0,1-.72,1.65-2,1.65h-2.6V20.41h2.54c1.26,0,2,.57,2,1.67Zm14.92,2.57v-6.6h-2.57v6.7c0,1.85-.95,2.8-2.52,2.8s-2.52-1-2.52-2.89V18.09h-2.57v6.68c0,3.44,1.92,5.19,5,5.19S132.71,28.22,132.71,24.69Zm12.75-6.6h-2.92l-2.84,4.69-2.79-4.69h-3l4.49,7.08v4.61H141V25.12Zm10.78,2.37V18.09h-9.68v2.37h3.55v9.32h2.57V20.46Zm10.53,9.32V27.49h-6.34V25h5.51V22.75h-5.51V20.38h6.26V18.09h-8.81V29.78Zm12.38,0-2.85-4.17A3.64,3.64,0,0,0,178.81,22v0c0-2.4-1.66-3.86-4.41-3.86h-5.34V29.78h2.57V26h2l2.5,3.74Zm-2.94-7.66c0,1-.72,1.65-2,1.65h-2.6V20.41h2.55c1.26,0,2,.57,2,1.67Z" transform="translate(-0.06 0)"/><g class="cls-3"><rect class="cls-2" width="48.13" height="102.22"/></g><rect x="11.99" y="40.98" width="24.09" height="2.39"/><path d="M31.66,73.52V83.6a14,14,0,0,1-6.88,1.84c-6.92,0-9.62-4.27-9.62-15S18,55.59,24.82,55.55c3.1,0,4.94.7,6.56,2.07a15.86,15.86,0,0,1,3.55,6.2h.65V55h-.74a1.71,1.71,0,0,1-.48.71,1.46,1.46,0,0,1-.86.19,4.76,4.76,0,0,1-1.38-.25c-.55-.18-1.17-.36-1.86-.55s-1.44-.36-2.25-.53c-.37-.08-.76-.14-1.14-.19a12.66,12.66,0,0,0-2.09-.16c-8.66.06-15.9,7.56-15.9,16.41a16,16,0,0,0,15.9,16.13c5.41,0,10.63-3.3,12.28-5.77V73.52h4.13V72.29H26.11v1.23h5.55" transform="translate(-0.06 0)"/><path d="M23.24,24.1v0c0-3.39-2.62-6-6.4-6h-4.7v12h4.7c3.78,0,6.4-2.63,6.4-6m-2.77,0a3.43,3.43,0,0,1-3.63,3.59H14.79V20.47h2.05a3.46,3.46,0,0,1,3.63,3.63Zm15.77,6V27.77H29.69V25.24h5.69V22.88H29.69V20.44h6.46V18.08H27.06v12Z" transform="translate(-0.06 0)"/></svg>