<svg xmlns="http://www.w3.org/2000/svg" viewBox="0 0 236 56"><g fill="#263C80"><path d="M0 26.707h6.324v-2.322h9.857v2.269h5.376L21.507 0S3.003.949 0 26.707zm16.287-7.653l-8.013-.053s1.634-6.861 8.013-11.189v11.242zM27.882 24.385h9.857v2.322h6.327C41.06.949 22.559 0 22.559 0l-.053 26.654h5.376v-2.269zm-.105-16.574C34.155 12.139 35.788 19 35.788 19l-8.011.053V7.811zM44.081 27.657h-6.5l-5.024 3.607-4.675-3.607h-5.389v24.859h5.494l-.105-18.842 4.586 3.484 4.955-3.273c-.792 7.97-7.379 14.779-7.379 14.779V56c15.284-10.926 14.037-28.343 14.037-28.343zM15.338 27.657H.053c.21 22.009 14.652 28.237 14.652 28.237v-7.178c-2.53-1.583-5.691-7.706-5.691-7.706h6.429c5.799-.317 6.011-6.017 6.011-6.017.631-6.333-6.116-7.336-6.116-7.336zm-.317 8.497l-7.801.053s-.686-2.797-.579-3.431h8.433s1.319.132 1.396 1.715c.081 1.585-1.449 1.663-1.449 1.663z"/><g><path d="M55.271 11.901l5.135 11.025h-1.188l-1.732-3.627h-4.743l-1.715 3.627H49.8l5.202-11.025h.269zm-.139 2.343l-1.887 3.991h3.764l-1.877-3.991zM61.611 22.926l1.576-11.025h.179l4.476 9.047 4.433-9.047h.177l1.584 11.025h-1.079l-1.088-7.885-3.893 7.885h-.281l-3.94-7.945-1.082 7.945h-1.062zM76.207 11.901h6.31v1.08h-5.21v3.455h5.164v1.079h-5.164v4.333h5.164v1.079h-6.264V11.901zM84.477 11.901h2.193c1.223 0 2.051.05 2.485.15a2.84 2.84 0 0 1 1.595.964c.409.493.613 1.099.613 1.82 0 .6-.14 1.128-.422 1.583a2.654 2.654 0 0 1-1.209 1.032c-.524.232-1.247.352-2.171.356l3.96 5.119h-1.36l-3.96-5.119h-.622v5.119h-1.1V11.901zm1.1 1.079v3.748l1.897.015c.735 0 1.279-.07 1.631-.209.353-.14.628-.364.825-.671s.296-.651.296-1.031c0-.37-.1-.706-.3-1.008a1.672 1.672 0 0 0-.787-.648c-.325-.13-.865-.195-1.619-.195h-1.943zM93.564 11.901h1.1v11.025h-1.1V11.901zM107.442 13.947l-.869.667a4.74 4.74 0 0 0-1.725-1.42 5.045 5.045 0 0 0-2.212-.483c-.878 0-1.691.211-2.44.633a4.545 4.545 0 0 0-1.74 1.701c-.412.712-.617 1.513-.617 2.402 0 1.344.46 2.466 1.381 3.365s2.081 1.349 3.484 1.349c1.542 0 2.832-.604 3.87-1.813l.869.659a5.553 5.553 0 0 1-2.055 1.623c-.821.382-1.738.573-2.751.573-1.926 0-3.446-.642-4.558-1.926-.933-1.084-1.399-2.394-1.399-3.927 0-1.614.565-2.972 1.695-4.074 1.13-1.102 2.546-1.653 4.248-1.653 1.028 0 1.956.204 2.784.611a5.426 5.426 0 0 1 2.035 1.713zM114.148 11.901l5.136 11.025h-1.189l-1.732-3.627h-4.743l-1.715 3.627h-1.228l5.202-11.025h.269zm-.139 2.343l-1.887 3.991h3.764l-1.877-3.991zM120.997 22.926V11.901h.239l7.328 8.452v-8.452h1.085v11.025h-.247l-7.269-8.349v8.349h-1.136zM141.07 11.901l5.136 11.025h-1.189l-1.732-3.627h-4.743l-1.715 3.627h-1.228l5.202-11.025h.269zm-.138 2.343l-1.887 3.991h3.764l-1.877-3.991zM146.775 20.873l.936-.562c.658 1.214 1.419 1.821 2.282 1.821.37 0 .717-.086 1.041-.259a1.822 1.822 0 0 0 .996-1.615c0-.37-.125-.732-.374-1.086-.344-.49-.972-1.08-1.886-1.769-.918-.694-1.489-1.197-1.714-1.506-.389-.52-.584-1.082-.584-1.687 0-.479.115-.917.344-1.312.229-.395.553-.706.969-.933a2.78 2.78 0 0 1 1.359-.341c.519 0 1.005.129 1.456.386s.929.73 1.434 1.42l-.898.682c-.414-.549-.768-.912-1.059-1.086a1.829 1.829 0 0 0-.955-.263c-.445 0-.807.135-1.089.405-.282.27-.422.603-.422.997 0 .24.05.472.149.697.099.225.282.47.546.735.145.14.619.507 1.423 1.102.953.705 1.606 1.332 1.96 1.881.355.55.532 1.102.532 1.656 0 .8-.302 1.494-.909 2.084-.607.589-1.344.884-2.212.884a3.244 3.244 0 0 1-1.819-.536c-.546-.357-1.047-.956-1.506-1.795zM154.41 20.873l.936-.562c.658 1.214 1.419 1.821 2.282 1.821.37 0 .717-.086 1.041-.259a1.822 1.822 0 0 0 .996-1.615c0-.37-.125-.732-.374-1.086-.344-.49-.972-1.08-1.886-1.769-.918-.694-1.489-1.197-1.714-1.506-.389-.52-.584-1.082-.584-1.687 0-.479.115-.917.344-1.312.229-.395.553-.706.969-.933a2.78 2.78 0 0 1 1.359-.341c.519 0 1.005.129 1.456.386s.929.73 1.434 1.42l-.898.682c-.414-.549-.768-.912-1.059-1.086a1.829 1.829 0 0 0-.955-.263c-.445 0-.807.135-1.089.405-.282.27-.422.603-.422.997 0 .24.05.472.149.697.099.225.282.47.546.735.145.14.619.507 1.423 1.102.953.705 1.606 1.332 1.96 1.881.355.55.532 1.102.532 1.656 0 .8-.302 1.494-.909 2.084-.607.589-1.344.884-2.212.884a3.244 3.244 0 0 1-1.819-.536c-.546-.357-1.047-.956-1.506-1.795zM168.425 11.624c1.668 0 3.063.557 4.187 1.671s1.685 2.486 1.685 4.115c0 1.614-.561 2.983-1.681 4.107-1.121 1.125-2.488 1.687-4.101 1.687-1.633 0-3.011-.56-4.134-1.679-1.123-1.12-1.685-2.474-1.685-4.063 0-1.06.256-2.041.768-2.946a5.594 5.594 0 0 1 2.094-2.125 5.625 5.625 0 0 1 2.867-.767zm.049 1.071a4.53 4.53 0 0 0-2.316.638c-.73.425-1.3.998-1.71 1.718-.41.72-.614 1.522-.614 2.408 0 1.311.453 2.417 1.36 3.319.907.903 2 1.354 3.28 1.354.854 0 1.645-.208 2.373-.623s1.294-.982 1.702-1.703.611-1.521.611-2.4c0-.875-.204-1.667-.611-2.374a4.57 4.57 0 0 0-1.72-1.699 4.659 4.659 0 0 0-2.355-.638zM186.761 13.947l-.869.667a4.74 4.74 0 0 0-1.725-1.42 5.045 5.045 0 0 0-2.212-.483c-.878 0-1.691.211-2.44.633a4.545 4.545 0 0 0-1.74 1.701c-.412.712-.617 1.513-.617 2.402 0 1.344.46 2.466 1.381 3.365s2.081 1.349 3.484 1.349c1.542 0 2.832-.604 3.87-1.813l.869.659a5.553 5.553 0 0 1-2.055 1.623c-.821.382-1.738.573-2.751.573-1.926 0-3.446-.642-4.558-1.926-.933-1.084-1.399-2.394-1.399-3.927 0-1.614.565-2.972 1.695-4.074 1.13-1.102 2.546-1.653 4.248-1.653 1.028 0 1.956.204 2.784.611s1.505.978 2.035 1.713zM188.811 11.901h1.1v11.025h-1.1V11.901zM196.932 11.901l5.136 11.025h-1.189l-1.732-3.627h-4.743l-1.715 3.627h-1.228l5.202-11.025h.269zm-.139 2.343l-1.887 3.991h3.764l-1.877-3.991zM202.681 12.98V11.9h6.033v1.08h-2.455v9.946h-1.122V12.98h-2.456zM210.143 11.901h1.1v11.025h-1.1V11.901zM219.009 11.624c1.668 0 3.063.557 4.187 1.671s1.685 2.486 1.685 4.115c0 1.614-.561 2.983-1.681 4.107-1.121 1.125-2.488 1.687-4.101 1.687-1.633 0-3.011-.56-4.134-1.679-1.123-1.12-1.685-2.474-1.685-4.063 0-1.06.256-2.041.768-2.946a5.594 5.594 0 0 1 2.094-2.125 5.625 5.625 0 0 1 2.867-.767zm.049 1.071a4.53 4.53 0 0 0-2.316.638c-.73.425-1.3.998-1.71 1.718-.41.72-.614 1.522-.614 2.408 0 1.311.453 2.417 1.36 3.319.907.903 2 1.354 3.28 1.354.854 0 1.645-.208 2.373-.623s1.294-.982 1.702-1.703.611-1.521.611-2.4c0-.875-.204-1.667-.611-2.374a4.57 4.57 0 0 0-1.72-1.699 4.659 4.659 0 0 0-2.355-.638zM227.097 22.926V11.901h.239l7.328 8.452v-8.452h1.085v11.025h-.247l-7.269-8.349v8.349h-1.136zM64.496 28.901h2.193c1.258 0 2.106.055 2.545.165a2.828 2.828 0 0 1 1.542.955c.399.482.599 1.089.599 1.818 0 .734-.195 1.34-.584 1.817-.39.478-.926.798-1.61.963-.499.12-1.432.18-2.799.18h-.786v5.127h-1.101V28.901zm1.1 1.078v3.74l1.864.022c.753 0 1.305-.068 1.654-.205.349-.138.624-.359.824-.666.199-.307.299-.649.299-1.028 0-.369-.1-.707-.299-1.014a1.656 1.656 0 0 0-.79-.655c-.327-.129-.862-.194-1.605-.194h-1.947zM73.56 28.901h1.1v4.625h5.607v-4.625h1.1v11.025h-1.1v-5.321H74.66v5.321h-1.1V28.901zM83.179 28.901h1.266l2.817 4.546 2.774-4.546h1.273l-3.488 5.755v5.27h-1.085v-5.27l-3.557-5.755zM91.98 37.872l.936-.563c.658 1.215 1.419 1.821 2.282 1.821.37 0 .717-.086 1.041-.258.325-.173.571-.403.741-.693s.255-.598.255-.922c0-.37-.125-.732-.374-1.087-.344-.49-.972-1.079-1.886-1.769-.918-.695-1.489-1.197-1.714-1.507-.389-.52-.584-1.082-.584-1.687 0-.479.115-.917.344-1.312.229-.395.553-.706.969-.933a2.78 2.78 0 0 1 1.359-.341c.519 0 1.005.129 1.456.386.452.257.929.73 1.434 1.42l-.898.682c-.414-.55-.768-.912-1.059-1.087a1.837 1.837 0 0 0-.955-.262c-.445 0-.808.135-1.089.404-.282.27-.422.603-.422.997 0 .24.05.472.149.697.099.225.282.47.546.734.145.14.619.507 1.423 1.102.953.705 1.606 1.332 1.96 1.881.355.55.532 1.103.532 1.657 0 .799-.302 1.494-.909 2.083-.607.59-1.344.885-2.212.885a3.244 3.244 0 0 1-1.819-.536c-.545-.354-1.046-.952-1.506-1.792zM100.596 28.901h1.1v11.025h-1.1V28.901zM114.474 30.946l-.869.667a4.75 4.75 0 0 0-1.725-1.42 5.045 5.045 0 0 0-2.212-.483c-.878 0-1.691.211-2.44.634a4.545 4.545 0 0 0-1.74 1.701c-.412.712-.617 1.513-.617 2.402 0 1.344.46 2.466 1.381 3.365s2.081 1.349 3.484 1.349c1.542 0 2.832-.604 3.87-1.813l.869.659a5.563 5.563 0 0 1-2.055 1.623c-.821.382-1.738.573-2.751.573-1.926 0-3.446-.642-4.558-1.926-.933-1.085-1.399-2.394-1.399-3.928 0-1.614.565-2.972 1.695-4.074 1.13-1.102 2.546-1.652 4.248-1.652 1.028 0 1.956.204 2.784.611a5.44 5.44 0 0 1 2.035 1.712zM116.524 28.901h1.1v11.025h-1.1V28.901zM119.008 37.872l.936-.563c.658 1.215 1.419 1.821 2.282 1.821.37 0 .717-.086 1.041-.258.325-.173.571-.403.741-.693s.255-.598.255-.922c0-.37-.125-.732-.374-1.087-.344-.49-.972-1.079-1.886-1.769-.918-.695-1.489-1.197-1.714-1.507-.389-.52-.584-1.082-.584-1.687 0-.479.115-.917.344-1.312.229-.395.553-.706.969-.933a2.78 2.78 0 0 1 1.359-.341c.519 0 1.005.129 1.456.386.452.257.929.73 1.434 1.42l-.898.682c-.414-.55-.768-.912-1.059-1.087a1.837 1.837 0 0 0-.955-.262c-.445 0-.808.135-1.089.404s-.422.603-.422.997c0 .24.05.472.149.697.099.225.282.47.546.734.145.14.619.507 1.423 1.102.953.705 1.606 1.332 1.96 1.881.355.55.532 1.103.532 1.657 0 .799-.302 1.494-.909 2.083-.607.59-1.344.885-2.212.885a3.244 3.244 0 0 1-1.819-.536c-.545-.354-1.046-.952-1.506-1.792zM126.688 29.979V28.9h6.033v1.079h-2.455v9.946h-1.123v-9.946h-2.455zM133.17 37.872l.936-.563c.658 1.215 1.419 1.821 2.282 1.821.37 0 .717-.086 1.041-.258a1.822 1.822 0 0 0 .996-1.615c0-.37-.125-.732-.374-1.087-.344-.49-.972-1.079-1.886-1.769-.918-.695-1.489-1.197-1.714-1.507-.389-.52-.584-1.082-.584-1.687 0-.479.115-.917.344-1.312s.553-.706.969-.933a2.78 2.78 0 0 1 1.359-.341c.519 0 1.005.129 1.456.386.452.257.929.73 1.434 1.42l-.898.682c-.414-.55-.768-.912-1.059-1.087a1.837 1.837 0 0 0-.955-.262c-.445 0-.808.135-1.089.404s-.422.603-.422.997c0 .24.05.472.149.697.099.225.282.47.546.734.145.14.619.507 1.423 1.102.953.705 1.606 1.332 1.96 1.881.355.55.532 1.103.532 1.657 0 .799-.302 1.494-.909 2.083-.607.59-1.344.885-2.212.885-.669 0-1.275-.179-1.819-.536s-1.047-.952-1.506-1.792zM146.03 28.901h1.1v11.025h-1.1V28.901zM149.66 39.926V28.901h.239l7.328 8.451v-8.451h1.085v11.025h-.247l-7.269-8.349v8.349h-1.136zM164.735 39.926l1.576-11.025h.178l4.476 9.046 4.433-9.046h.176l1.585 11.025h-1.079l-1.088-7.885-3.893 7.885h-.281l-3.94-7.945-1.082 7.945h-1.061zM179.331 28.901h6.31v1.079h-5.21v3.455h5.164v1.08h-5.164v4.332h5.164v1.079h-6.264V28.901zM187.542 39.926V28.901h2.283c1.646 0 2.842.132 3.585.397 1.068.375 1.903 1.024 2.503 1.948.602.925.902 2.026.902 3.306 0 1.104-.238 2.076-.715 2.916-.476.839-1.095 1.459-1.856 1.858-.762.399-1.828.6-3.2.6h-3.502zm1.055-1.042h1.273c1.521 0 2.577-.095 3.166-.284a3.648 3.648 0 0 0 1.953-1.457c.474-.701.712-1.559.712-2.572 0-1.063-.257-1.972-.771-2.726s-1.23-1.271-2.148-1.551c-.689-.209-1.824-.314-3.406-.314h-.778v8.904zM198.791 28.901h1.1v11.025h-1.1V28.901zM212.669 30.946l-.869.667c-.479-.624-1.054-1.098-1.725-1.42s-1.408-.483-2.212-.483c-.878 0-1.691.211-2.44.634-.748.422-1.328.989-1.74 1.701s-.617 1.513-.617 2.402c0 1.344.46 2.466 1.381 3.365s2.081 1.349 3.484 1.349c1.542 0 2.832-.604 3.87-1.813l.869.659a5.563 5.563 0 0 1-2.055 1.623c-.821.382-1.738.573-2.751.573-1.926 0-3.446-.642-4.558-1.926-.933-1.085-1.399-2.394-1.399-3.928 0-1.614.565-2.972 1.695-4.074 1.13-1.102 2.546-1.652 4.248-1.652 1.028 0 1.956.204 2.784.611a5.424 5.424 0 0 1 2.035 1.712zM214.72 28.901h1.1v11.025h-1.1V28.901zM218.35 39.926V28.901h.239l7.328 8.451v-8.451h1.085v11.025h-.247l-7.269-8.349v8.349h-1.136zM229.69 28.901H236v1.079h-5.21v3.455h5.164v1.08h-5.164v4.332h5.164v1.079h-6.264V28.901z"/></g><g><path d="M47.771 36.73c0-2.117 1.594-4.99 3.825-4.99 1.124 0 1.795.823 1.795 1.966 0 1.849-1.459 5.191-3.892 5.191-.922 0-1.728-.89-1.728-2.167zm4.95-3.276c.017-.521-.285-.94-.839-.94-.705 0-1.594.639-2.433 1.999-.571.907-.973 1.932-.973 2.722 0 .537.369.856.772.856 1.745 0 3.473-3.528 3.473-4.637z"/><path d="M54.704 32.816c-.084 0-.118-.051-.084-.169l.067-.285c.034-.117.067-.168.201-.168h1.459c.504-1.444 1.074-2.839 1.963-3.831.47-.538 1.393-1.142 2.483-1.142.973 0 1.51.588 1.51.991 0 .521-.335.772-.671.772-.537 0-.688-.302-.738-.672-.017-.168-.185-.487-.688-.487-1.56 0-2.165 2.486-2.718 4.368h1.627c.101 0 .135.051.101.201l-.084.303c-.017.101-.05.118-.185.118h-1.594c-.436 1.36-1.208 4.267-2.047 6.417-1.024 2.621-2.214 4.485-4.01 4.485-.671 0-1.208-.453-1.208-.991 0-.386.285-.722.721-.722.487 0 .738.47.788.756.034.168.151.285.285.285.806 0 1.712-1.411 2.618-4.519l1.694-5.712h-1.49z"/></g></g></svg>