<svg height="32" viewBox="0 0 143 32" width="143" xmlns="http://www.w3.org/2000/svg"><path d="m3.584 2.368.064 2.368h.064c.512-1.344 1.664-2.432 3.392-2.432 2.24 0 2.944 1.152 2.944 3.264v4.288c0 1.28.064 2.624.384 3.648h-3.648c.32-.96.32-2.112.32-3.52v-4.032c0-1.024-.384-1.472-1.472-1.472-.832 0-1.472.192-1.92.64v4.864c0 1.408.064 2.56.32 3.52h-3.584c.32-1.024.384-2.368.384-3.648v-3.904c0-1.088-.384-2.048-.832-2.56zm12.032-.064c2.816 0 3.904 1.088 3.904 3.392v4.864c0 .896.32 1.152 1.024 1.152.128 0 .448-.064.576-.192-.064.32-.128.512-.192.704-.32.896-.896 1.472-2.112 1.472-1.408 0-2.112-.96-2.176-1.984-.448 1.408-1.408 1.984-2.816 1.984-1.792 0-2.88-1.024-2.88-2.688 0-1.728 1.6-2.496 3.2-3.136 1.536-.64 2.432-1.088 2.432-2.176v-.192c0-1.216-.384-1.856-1.536-1.856-.704 0-1.024.32-1.152 1.024-.192 1.024-.64 1.408-1.344 1.408-.64 0-1.216-.448-1.216-1.216 0-1.472 2.048-2.56 4.288-2.56zm.96 9.088v-3.968c-.192.32-.512.512-1.344.896-1.024.512-1.408 1.024-1.408 2.24 0 .96.512 1.536 1.408 1.536.832.064 1.088-.256 1.344-.704zm10.816.96c-.384.896-1.344 1.408-2.624 1.408-2.24 0-3.136-1.152-3.136-3.2v-6.464h-1.088v-.064l3.968-4.032h.064v2.56h2.816l-.256 1.536h-2.496v6.016c0 1.152.512 1.6 1.536 1.6.768 0 1.216-.128 1.536-.32-.128.384-.128.64-.32.96zm3.84-9.856v7.552c0 1.152.448 1.792 1.536 1.792.96 0 1.6-.32 2.048-.832v-5.12c0-1.088-.128-2.048-.448-3.008l3.392-.32v7.68c0 1.728.192 2.496.448 3.264h-3.264v-2.176h-.064c-.448 1.408-1.408 2.432-3.264 2.432-2.368 0-3.264-1.408-3.264-3.584v-4.288c0-1.088-.128-2.048-.448-3.008zm11.136 2.624c.512-2.048 1.408-2.816 2.624-2.816 1.152 0 1.728.64 1.728 1.536 0 .832-.448 1.536-1.344 1.536-.512 0-.832-.192-1.024-.448-.256-.192-.448-.448-.64-.448-.576 0-1.216.96-1.216 2.624v2.688c0 1.344.128 2.688.384 3.712h-3.648c.32-1.024.384-2.368.384-3.648v-3.904c0-1.088-.384-2.048-.832-2.56l3.456-1.024h.064zm9.152 8.64c-2.816 0-5.12-1.856-5.12-5.44 0-3.648 2.176-6.016 5.184-6.016 2.816 0 4.16 1.792 4.16 5.184h-6.464v.32c0 2.752 1.408 3.776 3.328 3.776 1.728 0 2.56-.704 3.008-1.216l.064.192c-.448 1.664-1.728 3.2-4.16 3.2zm-2.176-7.04 3.648-.32c-.064-1.728-.32-2.752-1.536-2.752s-1.984.96-2.112 3.072zm-44.16 25.28c-2.944 0-4.928-2.048-4.928-5.504 0-3.84 2.624-5.952 5.312-5.952 2.496 0 3.584 1.088 3.584 2.24 0 .832-.512 1.344-1.344 1.344-.768 0-1.088-.512-1.28-1.408-.128-.768-.384-.896-1.088-.896-1.408 0-2.304 1.472-2.304 3.968 0 2.816 1.216 4.032 3.136 4.032 1.216 0 2.304-.384 2.944-1.024l.064.192c-.384 1.28-1.6 3.008-4.096 3.008zm15.232-5.76c0 3.52-2.56 5.76-5.312 5.76s-5.44-2.112-5.44-5.696c0-3.52 2.56-5.76 5.312-5.76s5.44 2.112 5.44 5.696zm-3.2.064c0-3.584-.832-4.416-2.24-4.416-1.344 0-2.112.96-2.112 4.352 0 3.584.832 4.416 2.24 4.416 1.344 0 2.112-.96 2.112-4.352zm7.232-5.696.064 2.368h.064c.512-1.344 1.536-2.432 3.328-2.432 1.984 0 2.624.896 2.816 2.432.512-1.344 1.536-2.432 3.264-2.432 2.24 0 2.88 1.152 2.88 3.264v4.288c0 1.28.064 2.624.384 3.648h-3.648c.32-.96.32-2.112.32-3.52v-4.096c0-1.024-.32-1.472-1.408-1.472-.832 0-1.344.192-1.792.64v4.736c0 1.28.064 2.624.384 3.648h-3.648c.32-.96.32-2.112.32-3.52v-4.096c0-1.024-.32-1.472-1.408-1.472-.832 0-1.28.128-1.792.64v4.864c0 1.408.064 2.56.32 3.52h-3.648c.32-1.024.384-2.368.384-3.648v-3.968c0-1.088-.384-2.048-.832-2.56zm16.704 0 .064 2.368h.064c.512-1.344 1.536-2.432 3.328-2.432 1.984 0 2.624.896 2.816 2.432.512-1.344 1.536-2.432 3.264-2.432 2.24 0 2.88 1.152 2.88 3.264v4.288c0 1.28.064 2.624.384 3.648h-3.648c.32-.96.32-2.112.32-3.52v-4.096c0-1.024-.32-1.472-1.408-1.472-.832 0-1.344.192-1.792.64v4.736c0 1.28.064 2.624.384 3.648h-3.648c.32-.96.32-2.112.32-3.52v-4.096c0-1.024-.32-1.472-1.408-1.472-.832 0-1.28.128-1.792.64v4.864c0 1.408.064 2.56.32 3.52h-3.648c.32-1.024.384-2.368.384-3.648v-3.968c0-1.088-.384-2.048-.832-2.56zm16.768.128v7.552c0 1.152.448 1.792 1.536 1.792.96 0 1.6-.32 2.048-.832v-5.12c0-1.088-.128-2.048-.448-3.008l3.392-.32v7.744c0 1.728.192 2.496.448 3.264h-3.264v-2.176h-.064c-.512 1.344-1.408 2.368-3.328 2.368-2.368 0-3.264-1.408-3.264-3.584v-4.288c0-1.088-.128-2.048-.448-3.008zm11.072-.128.064 2.368h.064c.512-1.344 1.664-2.432 3.392-2.432 2.24 0 2.944 1.152 2.944 3.264v4.288c0 1.28.064 2.624.384 3.648h-3.648c.32-.96.32-2.112.32-3.52v-4.096c0-1.024-.384-1.472-1.472-1.472-.832 0-1.472.192-1.92.64v4.864c0 1.408.064 2.56.32 3.52h-3.648c.32-1.024.384-2.368.384-3.648v-3.968c0-1.088-.384-2.048-.832-2.56zm11.008 7.488c0 1.28.064 2.624.384 3.648h-3.776c.32-1.024.384-2.368.384-3.648v-3.968c0-1.088-.384-2.048-.832-2.56l3.776-1.024h.064l-.064 2.752v4.8zm-3.328-9.92c0-.96.704-1.728 1.792-1.728 1.024 0 1.792.768 1.792 1.728s-.704 1.728-1.792 1.728-1.792-.768-1.792-1.728zm9.536 13.824c-2.944 0-4.928-2.048-4.928-5.504 0-3.84 2.624-5.952 5.312-5.952 2.496 0 3.584 1.088 3.584 2.24 0 .832-.512 1.344-1.344 1.344-.768 0-1.088-.512-1.28-1.408-.128-.768-.384-.896-1.088-.896-1.408 0-2.304 1.472-2.304 3.968 0 2.816 1.216 4.032 3.136 4.032 1.216 0 2.304-.384 2.944-1.024l.064.192c-.384 1.28-1.6 3.008-4.096 3.008zm9.024-11.456c2.816 0 3.904 1.088 3.904 3.392v4.864c0 .896.32 1.152 1.024 1.152.128 0 .448-.064.576-.192-.064.32-.128.512-.192.704-.32.896-.896 1.472-2.112 1.472-1.408 0-2.112-.96-2.176-1.984h-.064c-.448 1.408-1.408 1.984-2.816 1.984-1.792 0-2.88-1.024-2.88-2.688 0-1.728 1.6-2.496 3.2-3.136 1.536-.64 2.432-1.088 2.432-2.176v-.192c0-1.216-.384-1.856-1.536-1.856-.704 0-1.024.32-1.152 1.024-.192 1.024-.64 1.408-1.344 1.408-.64 0-1.216-.448-1.216-1.216.064-1.472 2.176-2.56 4.352-2.56zm.96 9.088v-3.968c-.192.32-.512.512-1.344.896-1.024.512-1.408 1.024-1.408 2.24 0 .96.512 1.536 1.408 1.536.832.064 1.152-.256 1.344-.704zm10.88.96c-.384.896-1.344 1.408-2.624 1.408-2.24 0-3.136-1.152-3.136-3.2v-6.464h-1.088v-.064l3.904-4.032h.064v2.56h2.816l-.256 1.536h-2.496v6.016c0 1.152.512 1.6 1.536 1.6.768 0 1.216-.128 1.536-.32-.064.384-.128.576-.256.96zm3.968-2.496c0 1.28.064 2.624.384 3.648h-3.776c.32-1.024.384-2.368.384-3.648v-3.968c0-1.088-.384-2.048-.832-2.56l3.776-1.024h.064l-.064 2.752v4.8zm-3.328-9.92c0-.96.704-1.728 1.792-1.728 1.024 0 1.792.768 1.792 1.728s-.704 1.728-1.792 1.728c-1.024 0-1.792-.768-1.792-1.728zm15.36 8.064c0 3.52-2.56 5.76-5.312 5.76s-5.44-2.112-5.44-5.696c0-3.52 2.56-5.76 5.312-5.76s5.44 2.112 5.44 5.696zm-3.2.064c0-3.584-.832-4.416-2.24-4.416-1.344 0-2.112.96-2.112 4.352 0 3.584.832 4.416 2.24 4.416 1.344 0 2.112-.96 2.112-4.352zm7.168-5.696.064 2.368h.064c.512-1.344 1.664-2.432 3.392-2.432 2.24 0 2.944 1.152 2.944 3.264v4.288c0 1.28.064 2.624.384 3.648h-3.648c.32-.96.32-2.112.32-3.52v-4.096c0-1.024-.384-1.472-1.472-1.472-.832 0-1.472.192-1.92.64v4.864c0 1.408.064 2.56.32 3.52h-3.648c.32-1.024.384-2.368.384-3.648v-3.968c0-1.088-.384-2.048-.832-2.56zm14.336.448.128 2.304h-.064c-.832-.896-1.6-1.536-2.944-1.536-.896 0-1.408.32-1.408 1.088s.384 1.088 2.176 1.856c1.856.768 3.008 1.664 3.008 3.456 0 1.856-1.024 3.712-4.096 3.712-1.28 0-2.56-.256-3.456-.768l-.128-2.752h.128c.896 1.088 2.112 2.24 3.456 2.24s1.664-.512 1.664-1.344c0-.96-.512-1.216-2.176-1.984-1.792-.768-3.008-1.6-3.008-3.456 0-2.112 1.664-3.392 3.776-3.392 1.408.064 2.24.32 2.944.576z"/></svg>