<svg xmlns="http://www.w3.org/2000/svg" viewBox="0 0 283.91 97.3"><path d="M58 48c11 0 24-3 24-13 0-8-8-11-15-11-10 0-30 6-30 27 0 11 8 17 21 17s23-9 26-21c-8 14-18 18-26 18-10 0-14-7-14-14 0-18 14-24 23-24 6 0 10 3 10 8 0 12-17 11-25 11h-4l-1 2 14 4c11 6 21 21 35 21 5 0 7-2 8-3-7 4-19-3-25-9-5-5-9-10-21-13" fill="#ff8200"/><path d="M126 68l-1-1-6-14h-7v15h-6V31h14c7 0 12 4 12 11 0 5-3 9-7 10l8 15-1 1h-6zm0-26c0-3-3-5-6-5h-8v10h8c3 0 6-2 6-5m12-11h23v5l-1 1h-16v9h13l1 1v5h-14v10h16l1 1v4l-1 1h-21l-1-1V31zm29 0h6v31h15l1 1v4l-1 1h-21V31zm48 37l-1-1-8-12-7 12-1 1h-6v-1l11-18-10-17v-1h7l6 12 7-12h7l-10 18 11 18-1 1h-5zm13-25V33h-4v-2h10v2h-4v10h-2zm8-12h2l3 8 4-8h2v12h-2v-7l-3 5v1h-1l-1-1-2-5v7h-2V31z" fill="#666"/></svg>
