<svg width="224" height="55" viewBox="0 0 224 55" xmlns="http://www.w3.org/2000/svg"><g fill="none"><path fill="#04CAA8" d="M223.79 54.963V15.19L208.6 0H0v39.773l15.19 15.19"/><path d="M19.576 36.168V15.626h6.662c3.345 0 6.544 1.556 6.544 5.87 0 2.494-1.849 3.697-2.142 3.785.293.059 3.198 1.115 3.198 4.813 0 3.61-2.993 6.074-6.867 6.074h-7.395zm7.278-3.345c1.937 0 3.404-.792 3.404-2.73 0-1.936-1.467-2.728-3.404-2.728h-3.756v5.458h3.756zm-3.756-8.804h3.022c1.967 0 3.082-.733 3.082-2.523s-1.35-2.524-3.082-2.524h-3.022v5.047zm13.885-8.393v20.542h3.522V22.376l6.427 9.772 6.426-9.772v13.792h3.522V15.626h-3.258l-6.69 10.33-6.691-10.33h-3.258zM70.56 33.234c-4.05 0-6.837-3.375-6.837-7.337 0-3.961 2.787-7.336 6.837-7.336 3.375 0 5.224 2.26 5.224 2.26l2.377-2.319s-2.67-3.228-7.601-3.228c-5.928 0-10.418 4.549-10.418 10.623S64.632 36.52 70.56 36.52c5.194 0 7.894-3.492 7.894-3.492l-2.348-2.318s-1.936 2.524-5.546 2.524zm19.376-17.608v20.542h3.522V22.376l6.426 9.772 6.427-9.772v13.792h3.522V15.626h-3.258l-6.69 10.33-6.692-10.33h-3.257zm29.39 6.28c3.815 0 7.014 2.964 7.014 7.249 0 .264 0 .792-.03 1.32h-10.388c.264 1.233 1.702 2.818 3.903 2.818 2.436 0 3.815-1.409 3.815-1.409l1.76 2.641s-2.2 1.996-5.575 1.996c-4.226 0-7.483-3.228-7.483-7.307s2.964-7.308 6.984-7.308zm-3.404 6.016h6.896c-.059-1.203-1.174-2.817-3.492-2.817-2.26 0-3.287 1.585-3.404 2.817zm25.81-13.939v22.185h-3.258V34.35s-1.203 2.172-4.196 2.172c-3.61 0-6.78-3.023-6.78-7.308s3.17-7.307 6.78-7.307c2.64 0 3.932 1.82 3.932 1.82v-9.743h3.522zm-3.522 17.314V27.13s-.998-1.937-3.316-1.937c-2.377 0-3.815 1.732-3.815 4.02s1.438 4.02 3.815 4.02c2.318 0 3.316-1.936 3.316-1.936zm7.527 4.871h3.522v-13.91h-3.522v13.91zm-.557-18.4c0 1.292 1.027 2.319 2.318 2.319s2.318-1.027 2.318-2.318c0-1.292-1.027-2.319-2.318-2.319s-2.318 1.027-2.318 2.319zm14.218 15.466c-2.377 0-3.903-1.849-3.903-4.02 0-2.172 1.526-4.02 3.903-4.02 2.113 0 3.257 1.466 3.257 1.466l2.436-2.171s-1.966-2.583-5.693-2.583c-4.167 0-7.483 3.2-7.483 7.308 0 4.079 3.316 7.307 7.483 7.307 3.756 0 5.752-2.641 5.752-2.641l-2.319-2.348s-1.056 1.702-3.433 1.702zm8.114 2.934h3.522v-13.91h-3.522v13.91zm-.557-18.4c0 1.292 1.027 2.319 2.318 2.319s2.318-1.027 2.318-2.318c0-1.292-1.027-2.319-2.318-2.319s-2.318 1.027-2.318 2.319zm15.128 4.138c-2.935 0-4.168 2.377-4.168 2.377V22.26h-3.286v13.91h3.521v-9.186s.94-1.79 2.759-1.79c1.526 0 2.758.851 2.758 2.847v8.129h3.522v-9.01c0-3.345-2.407-5.253-5.106-5.253zm14.188 0c3.815 0 7.014 2.964 7.014 7.249 0 .264 0 .792-.03 1.32h-10.388c.264 1.233 1.702 2.818 3.903 2.818 2.436 0 3.815-1.409 3.815-1.409l1.76 2.641s-2.2 1.996-5.575 1.996c-4.226 0-7.483-3.228-7.483-7.307s2.964-7.307 6.984-7.307zm-3.404 6.016h6.896c-.058-1.203-1.173-2.817-3.492-2.817-2.26 0-3.286 1.585-3.404 2.817z" fill="#182F51"/></g></svg>