<svg xmlns="http://www.w3.org/2000/svg" width="173" height="16" viewBox="0 0 173 16"><path d="M0 12V.23h3a4.34 4.34 0 013 1.08 3.41 3.41 0 011 2.48 3.42 3.42 0 01-1 2.48 4.38 4.38 0 01-3 1.07H1.51V12zm1.51-5.9H3a2.84 2.84 0 001.87-.58 2.05 2.05 0 00.71-1.69 2.05 2.05 0 00-.71-1.73A2.8 2.8 0 003 1.51H1.51zm12.92-1.38v-1h1.33V12h-1.33v-1a3.87 3.87 0 01-2.9 1.28A4.26 4.26 0 017.76 10a4.52 4.52 0 01-.56-2.2 4.47 4.47 0 01.56-2.19A4.14 4.14 0 019.31 4a4.25 4.25 0 012.21-.59 3.86 3.86 0 012.91 1.31zM8.55 7.83a3.25 3.25 0 00.82 2.25 2.75 2.75 0 002.16.92 2.75 2.75 0 002.16-.92 3.25 3.25 0 00.83-2.25 3.25 3.25 0 00-.83-2.25 2.75 2.75 0 00-2.16-.92 2.75 2.75 0 00-2.16.92 3.25 3.25 0 00-.82 2.25zm8.6 4.17V3.68h1.34V4.9a2.87 2.87 0 011-1.07 2.63 2.63 0 011.32-.37 2.12 2.12 0 011.27.38l.09 1.36h-.16a2 2 0 00-1.41-.54 2.11 2.11 0 00-1.46.58 2.67 2.67 0 00-.7 2V12zm6.06-7.1V3.68h1.59V1.94l1.34-.64v2.38h2.36V4.9h-2.36V10a.94.94 0 00.32.77 1.18 1.18 0 00.75.25 2.12 2.12 0 001.24-.48h.15l-.1 1.27a4 4 0 01-.78.33 2.68 2.68 0 01-.78.1 2.1 2.1 0 01-1.57-.6 2.32 2.32 0 01-.58-1.67v-5zm11.87 2.93a4.34 4.34 0 118.68 0 4.34 4.34 0 11-8.68 0zm6.49 2.28a3.17 3.17 0 00.85-2.28 3.17 3.17 0 00-.85-2.28 3 3 0 00-4.3 0 3.17 3.17 0 00-.85 2.28 3.17 3.17 0 00.85 2.28 3 3 0 004.3 0zm2.97-5.21V3.68h1.09V2.45A2.44 2.44 0 0146.29.7 2.13 2.13 0 0147.9 0a2.83 2.83 0 011.39.35v1.29h-.09a1.62 1.62 0 00-1.07-.43C47.4 1.2 47 1.69 47 2.53v1.15h1.47V4.9H47V12h-1.37V4.9zm11.32 4.22H56a6.24 6.24 0 001.37 1.31 3 3 0 001.71.5 2.31 2.31 0 001.63-.56 1.93 1.93 0 00.61-1.49 1.94 1.94 0 00-.71-1.54 6.47 6.47 0 00-1.79-1.06 6.12 6.12 0 01-2.14-1.44 2.84 2.84 0 01-.79-2 2.54 2.54 0 011-2.08A3.63 3.63 0 0159.25 0 4 4 0 0162 .93v1.62h-.22a3.39 3.39 0 00-2.59-1.35 2.13 2.13 0 00-1.4.46 1.44 1.44 0 00-.54 1.15c0 1 .88 1.7 2.51 2.4 2 .84 3.08 1.94 3.08 3.47a3.31 3.31 0 01-1.06 2.51 3.72 3.72 0 01-2.68 1 4.61 4.61 0 01-3.35-1.34zm8.42 6.64V3.68h1.34v1.25a5 5 0 011.34-1 3.53 3.53 0 011.73-.43 4 4 0 013 1.24 4.28 4.28 0 011.22 3.14A4.51 4.51 0 0171.69 11a4.17 4.17 0 01-2.95 1.21 4.05 4.05 0 01-1.82-.4 3.62 3.62 0 01-1.3-1v5zm1.26-7.93a3.18 3.18 0 00.86 2.24 3 3 0 004.3 0 3.16 3.16 0 00.87-2.24 3.13 3.13 0 00-.87-2.24 3 3 0 00-4.3 0 3.18 3.18 0 00-.86 2.24zM74.36 12V3.68h1.34V4.9a2.87 2.87 0 011-1.07 2.63 2.63 0 011.32-.37 2.12 2.12 0 011.27.38l.09 1.36h-.16a2 2 0 00-1.41-.54 2.12 2.12 0 00-1.46.58 2.67 2.67 0 00-.7 2V12zM81 .51a.94.94 0 011.33 1.33.93.93 0 01-1.33 0 1 1 0 010-1.33zM81 12V3.68h1.34V12zm3.19 0V3.68h1.34v1.25a3.39 3.39 0 011.23-1.06 3.46 3.46 0 011.64-.41 2.87 2.87 0 012.1.79 2.81 2.81 0 01.81 2.11V12H90V6.64a1.91 1.91 0 00-.55-1.45A2 2 0 0088 4.66a2.28 2.28 0 00-1.74.78 2.76 2.76 0 00-.7 1.92V12zm9.6-7.41a4.35 4.35 0 012.95-1.14 3.63 3.63 0 012.86 1.26v-1h1.34v7.53a4.94 4.94 0 01-1.15 3.63A4.38 4.38 0 0196.55 16a5 5 0 01-2.61-.73v-1.33h.21a4.58 4.58 0 001.18.63 4.25 4.25 0 001.46.22 2.92 2.92 0 002.06-.74 2.73 2.73 0 00.8-2.11v-1.28a3.7 3.7 0 01-3 1.34 4.26 4.26 0 01-2.91-1.13 4.29 4.29 0 01-1.24-3.16 4.2 4.2 0 011.29-3.12zm0 3.12a2.86 2.86 0 002.95 3.05 3 3 0 001.62-.43 2.69 2.69 0 001-1.12 3.4 3.4 0 00.33-1.5 3 3 0 00-4.53-2.61 2.69 2.69 0 00-1 1.12 3.45 3.45 0 00-.32 1.49zm9.66-3.01a4.13 4.13 0 012.9-1.24 3.9 3.9 0 012.88 1.11 4 4 0 011.12 2.94v.67h-6.78a3.1 3.1 0 00.53 1.54 2.88 2.88 0 002.43 1.28 4 4 0 001.58-.29 5.77 5.77 0 001.52-1h.13v1.47a5 5 0 01-3.17 1.09 4.32 4.32 0 01-2.21-.58 4.17 4.17 0 01-1.59-1.69 4.54 4.54 0 01-.56-2.22 4.52 4.52 0 011.22-3.08zm5.69 2.37a2.79 2.79 0 00-.88-1.82 2.69 2.69 0 00-1.9-.7 2.6 2.6 0 00-1.73.66 3 3 0 00-1 1.85zM112 12V3.68h1.34V4.9a2.87 2.87 0 011-1.07 2.63 2.63 0 011.32-.37 2.12 2.12 0 011.27.38L117 5.2h-.16a2 2 0 00-1.41-.54 2.12 2.12 0 00-1.46.58 2.67 2.67 0 00-.7 2V12zm11.93 0V.23h.57l6.89 8.25V.23h1.51V12h-.57l-6.88-8.29V12zm17.41-7.28v-1h1.33V12h-1.33v-1a3.87 3.87 0 01-2.9 1.28 4.26 4.26 0 01-3.76-2.28 4.52 4.52 0 01-.56-2.2 4.46 4.46 0 01.56-2.19A4.14 4.14 0 01136.23 4a4.25 4.25 0 012.21-.59 3.86 3.86 0 012.9 1.31zm-5.88 3.1a3.25 3.25 0 00.82 2.25 3 3 0 004.32 0 3.25 3.25 0 00.83-2.25 3.26 3.26 0 00-.83-2.25 3 3 0 00-4.32 0 3.25 3.25 0 00-.82 2.26zM144 4.9V3.68h1.59V1.94l1.34-.64v2.38h2.36V4.9h-2.36V10a.94.94 0 00.32.77 1.18 1.18 0 00.75.23 2.12 2.12 0 001.24-.48h.15l-.1 1.27a4 4 0 01-.78.33 2.68 2.68 0 01-.78.1 2.1 2.1 0 01-1.57-.6 2.32 2.32 0 01-.58-1.67v-5zm6.71-1.22h1.34V9a1.93 1.93 0 00.54 1.45A2 2 0 00154 11a2.24 2.24 0 001.73-.77 2.75 2.75 0 00.71-1.93V3.68h1.34V12h-1.34v-1.27a3.54 3.54 0 01-2.86 1.48 2.9 2.9 0 01-2.11-.79 2.87 2.87 0 01-.8-2.12zm8.68 8.32V3.68h1.34V4.9a2.87 2.87 0 011-1.07 2.63 2.63 0 011.32-.37 2.12 2.12 0 011.27.38l.09 1.36h-.16a2 2 0 00-1.41-.54 2.11 2.11 0 00-1.46.58 2.67 2.67 0 00-.7 2V12zm6.71-7.3a4.13 4.13 0 012.9-1.24 3.9 3.9 0 012.88 1.11A4 4 0 01173 7.51v.67h-6.78a3.1 3.1 0 00.53 1.54 2.88 2.88 0 002.43 1.28 4 4 0 001.58-.29 5.77 5.77 0 001.52-1h.13v1.47a5 5 0 01-3.17 1.09 4.32 4.32 0 01-2.21-.58 4.17 4.17 0 01-1.6-1.69 4.54 4.54 0 01-.56-2.22 4.52 4.52 0 011.23-3.08zm5.69 2.37a2.79 2.79 0 00-.88-1.82 2.69 2.69 0 00-1.9-.7 2.6 2.6 0 00-1.73.66 3 3 0 00-1 1.85z" fill="#fff"/></svg>