<svg xmlns="http://www.w3.org/2000/svg" width="135" height="13" viewBox="0 0 135 13"><path d="M72.8 5.1c0-2.7-2.3-3.7-4.5-3.7h-3.7v11.2h2.8V9.3h1.3c.5.7 1.1 1.9 1.2 3.4H73c-.3-1.7-1.2-3.4-1.7-4.3.9-.8 1.5-1.9 1.5-3.3zm-3 .4c0 1.2-.5 1.7-1.6 1.7h-.8V3.6h.8c1.3 0 1.6.7 1.6 1.9zm-7.3 7.2v-2.2h-4V8h3.6V5.9h-3.6V3.7h4V1.5h-6.6v9.2s0 .9.6 1.5c.4.4.9.6 1.5.6 2 0 4.2-.1 4.5-.1zM50 13c1.1 0 2.7-.3 3.9-.9V6.6h-3.7v1.9h1.2v2.3c-.3.1-1 .2-1.2.2-1.5 0-2.1-1.1-2.1-3.9 0-2.5.8-3.6 2.6-3.6.6 0 1.4.3 2.3.7l.8-1.9c-1.1-.7-2.3-1-3.5-1-1.7 0-2.9.5-3.7 1.5-.8 1-1.2 2.4-1.2 4.4-.1 4.2 1.2 5.8 4.6 5.8zm-9.5-.3h2.9V1.5H41v7.3l-3.3-7.3h-3.1v11.2h2.5V5.6l3.4 7.1zm-11.1 0h2.8V1.5h-2.8v11.2zm-3.6-4.3c.9-.8 1.5-1.9 1.5-3.3 0-2.7-2.3-3.7-4.5-3.7h-3.7v11.2h2.8V9.3h1.4c.5.7 1.1 1.9 1.2 3.4h3.1c-.3-1.7-1.2-3.4-1.8-4.3zm-1.5-2.9c0 1.2-.5 1.7-1.6 1.7h-.8V3.6h.8c1.4 0 1.6.7 1.6 1.9zm-6.6-.4c0-2.3-1.5-3.6-4.2-3.6H9.8v11.2h2.8V9.3h.9c1.2 0 4.2-.4 4.2-4.2zm-2.6.4c0 1.2-.5 1.7-1.6 1.7h-.8V3.6h.8c1.3 0 1.6.7 1.6 1.9zM3.2 3.6c0-.6.4-1.3 1.3-1.3.7.1 1.5.3 2.5.7l1-2C6.8.3 5.6 0 4.3 0c-2.5 0-4 1.4-4 3.6S2 6.8 3.5 7.5c1 .5 1.9 1 1.9 1.8 0 .7-.6 1.2-1.6 1.2-.8 0-1.7-.3-2.8-.8l-1 2.2c1.4.8 2.6 1.1 4 1.1 2.6 0 4.2-1.5 4.2-3.9C8.2 6.8 6.4 6 5 5.3c-.9-.5-1.8-.9-1.8-1.7zM131 10.5V8h3.6V5.9H131V3.7h4V1.5h-6.6v9.2s0 .9.6 1.5c.4.4.9.6 1.5.6 2 0 4.3-.1 4.6-.1v-2.2H131zm-6.1-2.1c.9-.8 1.5-1.9 1.5-3.3 0-2.7-2.3-3.7-4.5-3.7h-3.7v11.2h2.8V9.3h1.3c.5.7 1.1 1.9 1.2 3.4h3.1c-.2-1.7-1.1-3.4-1.7-4.3.1 0 0 0 0 0zm-1.5-2.9c0 1.2-.5 1.7-1.6 1.7h-.8V3.6h.8c1.4 0 1.6.7 1.6 1.9zm-7.2 3.2V1.5h-2.9V9c0 1.1-.1 1.9-1.4 1.9-1.2 0-1.4-.6-1.4-1.9V1.5h-2.9v7.6c0 2.7 1.3 3.9 4.2 3.9 3 0 4.3-1.4 4.4-4.3-.1 0-.1 0 0 0zm-12.5-4.9h2.1V1.5h-7.6v2.3h2.5v8.9h2.9l.1-8.9zm-8.5 8.9h3L95.5 1.5h-4.4l-2.7 11.2h2.9l.4-1.8h3.1l.4 1.8zm-.7-3.9H92l1.2-4.9h.1l1.2 4.9zm-11 3.9h3.3V.1h-2.7l.1 8.8L80.1.1h-3.3v12.6h2.6V4l.1.2 4 8.5z" fill="#666"/></svg>