<svg xmlns="http://www.w3.org/2000/svg" width="76" height="18" viewBox="0 0 76 18"><path d="M34.72 8.53a4.21 4.21 0 002.63-3.9 4.07 4.07 0 00-1.58-3.36A7.06 7.06 0 0031.28 0H25v18h7.26a5.93 5.93 0 005.13-2.3 4.8 4.8 0 00.83-2.8 4.1 4.1 0 00-1-2.8 5 5 0 00-2.5-1.57zm-6.07 1.84h3.25c1.74 0 2.6.72 2.6 2.21s-.84 2.21-2.6 2.21h-3.25zm4.64-3.72a2.81 2.81 0 01-2 .55h-2.64v-4h2.64a2.81 2.81 0 012 .52 2 2 0 01.52 1.46 2 2 0 01-.52 1.47zM56.05 0h-1.16l-4.66 10.61L45.65 0h-1.21l-4.79 17.94h3.59l2.6-9.36 4 8.65h.81l4-8.65L57.18 18h3.59zm19.11 13.49a7.19 7.19 0 01-4 1.3 5.66 5.66 0 01-4.25-1.61A5.84 5.84 0 0165.29 9a5.78 5.78 0 011.54-4.15 5.66 5.66 0 014.25-1.61 7.19 7.19 0 014 1.27l.81-3.12A9.76 9.76 0 0073.61.32a10.22 10.22 0 00-2.7-.32 9.78 9.78 0 00-4.66 1.14A8.48 8.48 0 0063 4.36 9 9 0 0061.76 9a9.13 9.13 0 00.7 3.59 8.55 8.55 0 001.93 2.86A9.51 9.51 0 0070.93 18a10.06 10.06 0 002.7-.31 9.79 9.79 0 002.37-1l-.83-3.18z" fill="#fff"/><path fill="#27dfe9" d="M0 .01h17.97v17.97L0 .01z"/><path fill="#fff" d="M17.97 17.98H0V.01l17.97 17.97z"/></svg>